<?xml version="1.0" encoding="utf-8"?>
<!-- Generator: Adobe Illustrator 11.0, SVG Export Plug-In  -->
<!DOCTYPE svg PUBLIC "-//W3C//DTD SVG 1.0//EN"    "http://www.w3.org/TR/2001/REC-SVG-20010904/DTD/svg10.dtd" [
	<!ENTITY ns_flows "http://ns.adobe.com/Flows/1.0/">
	<!ENTITY ns_svg "http://www.w3.org/2000/svg">
	<!ENTITY ns_xlink "http://www.w3.org/1999/xlink">
]>
<svg  xmlns="&ns_svg;" xmlns:xlink="&ns_xlink;" xmlns:a="http://ns.adobe.com/AdobeSVGViewerExtensions/3.0/"
	 width="816" height="238" viewBox="-0.5 -0.276 816 238" xml:space="preserve">
	<defs>
	</defs>
	<g>
		<rect x="686.163" y="46.386" fill="#4D4D4D" width="10.416" height="5.952"/> 
		<rect x="686.163" y="46.386" fill="none" stroke="#000000" width="10.416" height="5.952"/> 
		<rect x="408.441" y="46.386" fill="#4D4D4D" width="10.416" height="5.952"/> 
		<rect x="408.441" y="46.386" fill="none" stroke="#000000" width="10.416" height="5.952"/> 
		<rect x="0.5" y="178.688" stroke="#000000" width="195.651" height="12.031"/> 
		<rect x="195.352" y="178.688" fill="#FFFFFF" stroke="#000000" width="195.652" height="12.031"/> 
		<polygon points="193.308,217.117 193.238,217.117 189.311,219.236 188.721,216.908 193.654,214.267 196.261,214.267 
			196.261,236.852 193.307,236.852 193.307,217.117 "/>
		<path d="M386.928,237.289v-1.934l2.471-2.399c5.943-5.656,8.664-8.665,8.664-12.173c0-2.362-1.109-4.548-4.582-4.548
			c-2.113,0-3.867,1.075-4.941,1.969l-1.004-2.219c1.576-1.325,3.904-2.363,6.59-2.363c4.977,0,7.088,3.438,7.088,6.768
			c0,4.297-3.113,7.77-8.02,12.496l-1.826,1.719v0.072h10.42v2.612H386.928L386.928,237.289z"/>
		<path d="M219.952,231.061c-0.104-1.957-0.231-4.377-0.231-6.122h-0.042c-0.505,1.641-1.073,3.45-1.788,5.386l-2.504,6.88h-1.389
			l-2.314-6.754c-0.673-1.999-1.22-3.829-1.621-5.512h-0.042c-0.042,1.767-0.147,4.145-0.274,6.27l-0.378,6.08h-1.746l0.989-14.182
			h2.335l2.419,6.859c0.589,1.747,1.052,3.323,1.431,4.797h0.042c0.379-1.431,0.884-3.009,1.516-4.797l2.524-6.859h2.335
			l0.884,14.182h-1.81L219.952,231.061z"/>
		<linearGradient id="XMLID_1_" gradientUnits="userSpaceOnUse" x1="408.167" y1="56.8345" x2="408.167" y2="117.8322">
			<stop  offset="0" style="stop-color:#CCC2CA"/>
			<stop  offset="0.2472" style="stop-color:#FFFFFF"/>
			<stop  offset="1" style="stop-color:#CCC2CA"/>
			<stop  offset="1" style="stop-color:#272831"/>
			<a:midPointStop  offset="0" style="stop-color:#CCC2CA"/>
			<a:midPointStop  offset="0.5" style="stop-color:#CCC2CA"/>
			<a:midPointStop  offset="0.2472" style="stop-color:#FFFFFF"/>
			<a:midPointStop  offset="0.5" style="stop-color:#FFFFFF"/>
			<a:midPointStop  offset="1" style="stop-color:#CCC2CA"/>
			<a:midPointStop  offset="0.5" style="stop-color:#CCC2CA"/>
			<a:midPointStop  offset="1" style="stop-color:#272831"/>
		</linearGradient>
		<path fill="url(#XMLID_1_)" stroke="#000000" stroke-width="2" d="M1.833,87.166c0,28,52.333,30.667,66.333,30.667
			s738.443,0,738.443,0l7.89-3.333v-21V81.501v-21l-8.612-3.333c-622.763,0-617.483,0-737.721,0c-14,0-66.333,2.667-66.333,30.667
			V87.166z"/>
		<polygon fill="#EAE7E9" stroke="#000000" stroke-width="2" points="78,58.834 86.25,51.334 788.085,51.334 791.585,54.834 
			791.585,59.584 85,59.834 "/>
		<polygon fill="#D5CAD0" stroke="#000000" stroke-width="2" points="105,68.084 78.5,68.084 70.5,66.334 69.5,65.084 84.75,51.834 
			104.75,52.084 "/>
		<polygon fill="#F7F6F6" stroke="#000000" stroke-width="2" points="105,107.454 78.5,107.454 70.5,109.204 69.5,110.454 
			84.75,123.704 104.75,123.454 "/>
		<line fill="none" stroke="#000000" stroke-width="2" x1="124.166" y1="62.501" x2="124.166" y2="113.501"/>
		<line fill="none" stroke="#000000" stroke-width="2" x1="141.166" y1="62.501" x2="141.166" y2="113.501"/>
		<path d="M128.314,87.563c0.089,0.098,0.157,0.218,0.204,0.359s0.071,0.303,0.071,0.482s-0.024,0.341-0.073,0.482
			c-0.048,0.143-0.116,0.261-0.203,0.355c-0.09,0.099-0.196,0.173-0.319,0.223c-0.123,0.05-0.263,0.075-0.42,0.075
			c-0.154,0-0.293-0.025-0.419-0.076c-0.125-0.051-0.232-0.125-0.32-0.222s-0.155-0.215-0.203-0.355
			c-0.047-0.142-0.071-0.302-0.071-0.482c0-0.178,0.023-0.338,0.07-0.479c0.047-0.142,0.115-0.263,0.205-0.363
			c0.086-0.096,0.193-0.169,0.32-0.22s0.267-0.076,0.417-0.076c0.156,0,0.296,0.025,0.421,0.077
			C128.122,87.395,128.227,87.468,128.314,87.563z M128.289,88.405c0-0.284-0.063-0.503-0.191-0.656
			c-0.127-0.154-0.301-0.231-0.521-0.231c-0.222,0-0.396,0.077-0.523,0.231c-0.126,0.153-0.19,0.372-0.19,0.656
			c0,0.286,0.064,0.506,0.194,0.657c0.129,0.152,0.302,0.229,0.52,0.229c0.218,0,0.391-0.076,0.52-0.229
			C128.225,88.911,128.289,88.691,128.289,88.405z"/>
		<path d="M130.717,89.494h-0.289v-1.922h-1.09v1.922h-0.289v-2.18h1.668V89.494z"/>
		<path d="M132.93,87.563c0.089,0.098,0.157,0.218,0.204,0.359s0.071,0.303,0.071,0.482s-0.024,0.341-0.073,0.482
			c-0.048,0.143-0.116,0.261-0.203,0.355c-0.09,0.099-0.196,0.173-0.319,0.223c-0.123,0.05-0.263,0.075-0.42,0.075
			c-0.153,0-0.293-0.025-0.418-0.076s-0.232-0.125-0.32-0.222c-0.088-0.097-0.155-0.215-0.203-0.355
			c-0.048-0.142-0.071-0.302-0.071-0.482c0-0.178,0.023-0.338,0.07-0.479c0.047-0.142,0.115-0.263,0.205-0.363
			c0.086-0.096,0.193-0.169,0.32-0.22c0.128-0.051,0.267-0.076,0.417-0.076c0.157,0,0.297,0.025,0.422,0.077
			C132.737,87.395,132.843,87.468,132.93,87.563z M132.905,88.405c0-0.284-0.063-0.503-0.191-0.656
			c-0.127-0.154-0.301-0.231-0.521-0.231c-0.223,0-0.397,0.077-0.524,0.231c-0.126,0.153-0.19,0.372-0.19,0.656
			c0,0.286,0.064,0.506,0.194,0.657c0.129,0.152,0.302,0.229,0.52,0.229c0.217,0,0.39-0.076,0.519-0.229
			C132.84,88.911,132.905,88.691,132.905,88.405z"/>
		<path d="M135.09,87.972c0,0.098-0.017,0.187-0.051,0.27c-0.033,0.082-0.081,0.153-0.141,0.214
			c-0.075,0.075-0.164,0.132-0.267,0.169c-0.103,0.038-0.232,0.057-0.388,0.057h-0.29v0.813h-0.289v-2.18h0.591
			c0.131,0,0.242,0.011,0.333,0.033c0.091,0.021,0.171,0.056,0.241,0.103c0.083,0.056,0.147,0.125,0.193,0.208
			S135.09,87.846,135.09,87.972z M134.79,87.979c0-0.074-0.013-0.14-0.04-0.195c-0.026-0.055-0.066-0.101-0.12-0.135
			c-0.047-0.03-0.101-0.052-0.161-0.065c-0.061-0.013-0.136-0.02-0.228-0.02h-0.288v0.867h0.245c0.117,0,0.212-0.011,0.286-0.031
			s0.133-0.055,0.179-0.1c0.046-0.047,0.078-0.096,0.097-0.147S134.79,88.043,134.79,87.979z"/>
		<path d="M137.192,89.494h-0.308l-0.212-0.605h-0.945l-0.212,0.605h-0.295l0.793-2.18h0.387L137.192,89.494z M136.582,88.638
			l-0.382-1.069l-0.383,1.069H136.582z"/>
		<path d="M293.236,87.051l-0.147,1.977h-0.464l-0.147-1.977H293.236z"/>
		<path d="M295.116,87.051l-0.147,1.977h-0.464l-0.147-1.977H295.116z"/>
		<path d="M300.238,87.286l-1.754,2.514l1.754,2.572h-0.785l-1.386-2.094l-1.415,2.094h-0.743l1.771-2.541l-1.732-2.545h0.775
			l1.374,2.066l1.397-2.066H300.238z"/>
		<path d="M302.854,90.442h-2.133v-0.609h2.133V90.442z"/>
		<path d="M306.929,89.918c0.11,0.098,0.2,0.221,0.271,0.369c0.071,0.148,0.106,0.341,0.106,0.576c0,0.232-0.042,0.446-0.127,0.641
			c-0.084,0.194-0.203,0.363-0.356,0.507c-0.171,0.16-0.373,0.278-0.604,0.354c-0.231,0.077-0.486,0.115-0.762,0.115
			c-0.283,0-0.562-0.034-0.835-0.102c-0.274-0.066-0.499-0.141-0.675-0.221v-0.717h0.051c0.194,0.13,0.423,0.238,0.686,0.324
			c0.263,0.086,0.517,0.129,0.761,0.129c0.145,0,0.297-0.024,0.46-0.072c0.162-0.048,0.293-0.119,0.394-0.214
			c0.105-0.101,0.183-0.212,0.235-0.334c0.051-0.121,0.077-0.275,0.077-0.461c0-0.184-0.029-0.336-0.087-0.457
			c-0.058-0.12-0.139-0.215-0.242-0.284c-0.103-0.07-0.228-0.119-0.374-0.146c-0.146-0.026-0.304-0.04-0.473-0.04h-0.309v-0.563
			h0.239c0.346,0,0.622-0.072,0.828-0.218c0.206-0.145,0.309-0.356,0.309-0.636c0-0.123-0.026-0.23-0.079-0.323
			s-0.125-0.169-0.219-0.229c-0.098-0.059-0.203-0.101-0.314-0.123s-0.238-0.034-0.379-0.034c-0.217,0-0.447,0.039-0.69,0.118
			c-0.244,0.079-0.474,0.19-0.69,0.335h-0.034v-0.717c0.162-0.08,0.378-0.153,0.648-0.221s0.532-0.102,0.785-0.102
			c0.249,0,0.468,0.022,0.657,0.068c0.189,0.045,0.36,0.118,0.513,0.219c0.164,0.109,0.288,0.241,0.373,0.396
			c0.084,0.155,0.126,0.336,0.126,0.543c0,0.282-0.1,0.528-0.299,0.739c-0.199,0.21-0.434,0.343-0.705,0.397v0.047
			c0.109,0.019,0.235,0.057,0.376,0.115C306.711,89.758,306.832,89.832,306.929,89.918z"/>
		<path d="M311.866,90.955c0,0.439-0.172,0.806-0.516,1.097c-0.344,0.292-0.776,0.438-1.297,0.438c-0.553,0-0.993-0.143-1.321-0.427
			c-0.328-0.285-0.492-0.649-0.492-1.094c0-0.282,0.083-0.538,0.248-0.768c0.165-0.229,0.398-0.41,0.698-0.545v-0.021
			c-0.274-0.146-0.477-0.305-0.608-0.479c-0.131-0.173-0.197-0.389-0.197-0.648c0-0.383,0.158-0.702,0.473-0.957
			c0.315-0.255,0.716-0.383,1.203-0.383c0.509,0,0.916,0.122,1.22,0.365c0.304,0.244,0.456,0.554,0.456,0.93
			c0,0.23-0.072,0.456-0.216,0.679c-0.145,0.222-0.355,0.396-0.635,0.521v0.021c0.319,0.137,0.563,0.306,0.73,0.506
			C311.782,90.389,311.866,90.645,311.866,90.955z M311.163,91.02c0-0.21-0.046-0.378-0.139-0.504
			c-0.093-0.127-0.273-0.254-0.543-0.382c-0.107-0.05-0.225-0.097-0.353-0.14c-0.128-0.043-0.298-0.104-0.511-0.182
			c-0.206,0.112-0.371,0.264-0.495,0.455s-0.187,0.408-0.187,0.649c0,0.308,0.106,0.562,0.318,0.763
			c0.212,0.2,0.482,0.301,0.809,0.301c0.333,0,0.6-0.086,0.8-0.256C311.063,91.553,311.163,91.319,311.163,91.02z M311.061,88.464
			c0-0.245-0.094-0.44-0.282-0.585c-0.188-0.146-0.428-0.219-0.72-0.219c-0.288,0-0.523,0.068-0.707,0.206s-0.275,0.323-0.275,0.557
			c0,0.165,0.046,0.308,0.138,0.428s0.231,0.228,0.418,0.321c0.084,0.041,0.205,0.096,0.363,0.162s0.313,0.121,0.463,0.164
			c0.227-0.15,0.384-0.308,0.471-0.471C311.018,88.866,311.061,88.678,311.061,88.464z"/>
		<path d="M317.488,92.372h-0.68V87.99l-1.41,2.983h-0.402l-1.399-2.983v4.382h-0.633v-5.086h0.922l1.352,2.833l1.308-2.833h0.942
			V92.372z"/>
		<path d="M322.008,87.847c0.219,0.219,0.388,0.489,0.506,0.813c0.118,0.323,0.178,0.705,0.178,1.146c0,0.392-0.06,0.751-0.18,1.08
			s-0.292,0.61-0.518,0.845c-0.233,0.241-0.505,0.422-0.816,0.544c-0.312,0.122-0.653,0.183-1.025,0.183
			c-0.322,0-0.627-0.031-0.917-0.093s-0.534-0.135-0.732-0.219v-0.751h0.055c0.185,0.147,0.418,0.266,0.7,0.354
			c0.282,0.087,0.583,0.131,0.905,0.131c0.281,0,0.538-0.049,0.77-0.148c0.233-0.099,0.427-0.233,0.582-0.403
			c0.164-0.182,0.288-0.387,0.371-0.615s0.125-0.487,0.125-0.778h-2.781v-0.586h2.747c-0.032-0.271-0.101-0.505-0.205-0.704
			c-0.105-0.198-0.238-0.362-0.4-0.492s-0.346-0.226-0.551-0.288s-0.424-0.094-0.656-0.094c-0.313,0-0.605,0.043-0.879,0.13
			c-0.274,0.086-0.51,0.204-0.708,0.354h-0.058v-0.749c0.212-0.089,0.463-0.163,0.752-0.224c0.29-0.06,0.585-0.09,0.889-0.09
			c0.392,0,0.742,0.055,1.051,0.164S321.787,87.628,322.008,87.847z"/>
		<path d="M324.405,87.051l-0.146,1.977h-0.465l-0.146-1.977H324.405z"/>
		<path d="M326.285,87.051l-0.146,1.977h-0.465l-0.146-1.977H326.285z"/>
		<path d="M331.961,90.442h-2.133v-0.609h2.133V90.442z"/>
		<path d="M338.937,89.825c0,0.915-0.143,1.587-0.429,2.015c-0.287,0.428-0.73,0.642-1.333,0.642c-0.611,0-1.058-0.217-1.339-0.65
			s-0.422-1.1-0.422-1.998c0-0.906,0.143-1.575,0.428-2.008s0.729-0.648,1.334-0.648c0.611,0,1.058,0.22,1.339,0.659
			C338.796,88.274,338.937,88.938,338.937,89.825z M338.037,91.38c0.08-0.185,0.134-0.402,0.162-0.652
			c0.029-0.25,0.043-0.551,0.043-0.903c0-0.347-0.014-0.648-0.043-0.904c-0.028-0.256-0.083-0.473-0.166-0.65
			c-0.08-0.176-0.188-0.309-0.327-0.397c-0.138-0.089-0.315-0.134-0.531-0.134c-0.214,0-0.392,0.045-0.531,0.134
			c-0.141,0.089-0.251,0.224-0.333,0.404c-0.078,0.169-0.13,0.39-0.159,0.661c-0.029,0.271-0.043,0.57-0.043,0.895
			c0,0.355,0.013,0.654,0.038,0.894c0.025,0.24,0.079,0.455,0.161,0.645c0.075,0.178,0.182,0.313,0.319,0.407
			c0.138,0.094,0.321,0.141,0.549,0.141c0.214,0,0.392-0.045,0.533-0.134C337.85,91.696,337.959,91.561,338.037,91.38z"/>
		<path d="M343.387,89.825c0,0.915-0.143,1.587-0.429,2.015c-0.287,0.428-0.73,0.642-1.333,0.642c-0.611,0-1.058-0.217-1.339-0.65
			s-0.422-1.1-0.422-1.998c0-0.906,0.143-1.575,0.428-2.008s0.729-0.648,1.334-0.648c0.611,0,1.058,0.22,1.339,0.659
			C343.247,88.274,343.387,88.938,343.387,89.825z M342.487,91.38c0.08-0.185,0.134-0.402,0.162-0.652
			c0.029-0.25,0.043-0.551,0.043-0.903c0-0.347-0.014-0.648-0.043-0.904c-0.028-0.256-0.083-0.473-0.166-0.65
			c-0.08-0.176-0.188-0.309-0.327-0.397c-0.138-0.089-0.315-0.134-0.531-0.134c-0.214,0-0.392,0.045-0.531,0.134
			c-0.141,0.089-0.251,0.224-0.333,0.404c-0.078,0.169-0.13,0.39-0.159,0.661c-0.029,0.271-0.043,0.57-0.043,0.895
			c0,0.355,0.013,0.654,0.038,0.894c0.025,0.24,0.079,0.455,0.161,0.645c0.075,0.178,0.182,0.313,0.319,0.407
			c0.138,0.094,0.321,0.141,0.549,0.141c0.214,0,0.392-0.045,0.533-0.134C342.3,91.696,342.409,91.561,342.487,91.38z"/>
		<path d="M347.548,92.372h-2.758v-0.523h1.063v-3.406h-1.063v-0.469c0.144,0,0.298-0.012,0.462-0.036
			c0.165-0.023,0.289-0.059,0.374-0.104c0.105-0.057,0.188-0.129,0.249-0.217s0.095-0.205,0.104-0.354h0.53v4.586h1.039V92.372z"/>
		<line fill="none" stroke="#000000" stroke-width="2" x1="403.166" y1="62.501" x2="403.166" y2="113.501"/>
		<line fill="none" stroke="#000000" stroke-width="2" x1="420.166" y1="62.501" x2="420.166" y2="113.501"/>
		<path d="M408.314,88.063c0.089,0.098,0.157,0.218,0.204,0.359c0.048,0.142,0.071,0.303,0.071,0.482s-0.024,0.341-0.072,0.482
			c-0.049,0.143-0.116,0.261-0.203,0.355c-0.09,0.099-0.196,0.173-0.319,0.223c-0.123,0.05-0.263,0.075-0.42,0.075
			c-0.154,0-0.293-0.025-0.419-0.076c-0.125-0.051-0.232-0.125-0.32-0.222s-0.155-0.215-0.203-0.355
			c-0.047-0.142-0.071-0.302-0.071-0.482c0-0.178,0.023-0.338,0.07-0.479c0.047-0.142,0.115-0.263,0.205-0.363
			c0.086-0.096,0.193-0.169,0.32-0.22s0.267-0.076,0.417-0.076c0.156,0,0.296,0.025,0.421,0.077
			C408.122,87.895,408.227,87.968,408.314,88.063z M408.289,88.905c0-0.284-0.063-0.503-0.191-0.656
			c-0.127-0.154-0.301-0.231-0.521-0.231c-0.222,0-0.396,0.077-0.523,0.231c-0.126,0.153-0.19,0.372-0.19,0.656
			c0,0.286,0.064,0.506,0.194,0.657c0.129,0.152,0.302,0.229,0.52,0.229c0.218,0,0.391-0.076,0.52-0.229
			C408.225,89.411,408.289,89.191,408.289,88.905z"/>
		<path d="M410.717,89.994h-0.289v-1.922h-1.09v1.922h-0.289v-2.18h1.668V89.994z"/>
		<path d="M412.93,88.063c0.09,0.098,0.157,0.218,0.205,0.359c0.047,0.142,0.07,0.303,0.07,0.482s-0.023,0.341-0.072,0.482
			c-0.049,0.143-0.115,0.261-0.203,0.355c-0.09,0.099-0.195,0.173-0.318,0.223s-0.263,0.075-0.42,0.075
			c-0.154,0-0.293-0.025-0.419-0.076s-0.231-0.125-0.32-0.222c-0.088-0.097-0.155-0.215-0.202-0.355
			c-0.049-0.142-0.072-0.302-0.072-0.482c0-0.178,0.023-0.338,0.07-0.479c0.047-0.142,0.115-0.263,0.205-0.363
			c0.086-0.096,0.193-0.169,0.32-0.22c0.129-0.051,0.268-0.076,0.418-0.076c0.156,0,0.297,0.025,0.422,0.077
			C412.737,87.895,412.843,87.968,412.93,88.063z M412.904,88.905c0-0.284-0.063-0.503-0.19-0.656
			c-0.128-0.154-0.302-0.231-0.521-0.231c-0.223,0-0.397,0.077-0.524,0.231c-0.126,0.153-0.19,0.372-0.19,0.656
			c0,0.286,0.064,0.506,0.194,0.657c0.13,0.152,0.302,0.229,0.521,0.229c0.217,0,0.39-0.076,0.518-0.229
			C412.84,89.411,412.904,89.191,412.904,88.905z"/>
		<path d="M415.09,88.472c0,0.098-0.016,0.187-0.051,0.27c-0.033,0.082-0.08,0.153-0.141,0.214
			c-0.075,0.075-0.164,0.132-0.267,0.169c-0.103,0.038-0.231,0.057-0.388,0.057h-0.291v0.813h-0.289v-2.18h0.592
			c0.131,0,0.242,0.011,0.332,0.033c0.092,0.021,0.172,0.056,0.242,0.103c0.082,0.056,0.146,0.125,0.192,0.208
			S415.09,88.346,415.09,88.472z M414.789,88.479c0-0.074-0.013-0.14-0.039-0.195c-0.026-0.055-0.066-0.101-0.12-0.135
			c-0.048-0.03-0.101-0.052-0.161-0.065c-0.061-0.013-0.136-0.02-0.228-0.02h-0.288v0.867h0.246c0.117,0,0.212-0.011,0.285-0.031
			s0.133-0.055,0.18-0.1c0.045-0.047,0.078-0.096,0.097-0.147S414.789,88.543,414.789,88.479z"/>
		<path d="M417.192,89.994h-0.308l-0.213-0.605h-0.944l-0.212,0.605h-0.296l0.793-2.18h0.387L417.192,89.994z M416.582,89.138
			l-0.383-1.069l-0.383,1.069H416.582z"/>
		<line fill="none" stroke="#000000" stroke-width="2" x1="687.416" y1="62.501" x2="687.416" y2="113.501"/>
		<line fill="none" stroke="#000000" stroke-width="2" x1="704.416" y1="62.501" x2="704.416" y2="113.501"/>
		<path d="M692.564,86.563c0.089,0.098,0.156,0.218,0.204,0.359s0.071,0.303,0.071,0.482s-0.024,0.341-0.072,0.482
			c-0.049,0.143-0.116,0.261-0.203,0.355c-0.09,0.099-0.196,0.173-0.318,0.223c-0.123,0.05-0.264,0.075-0.42,0.075
			c-0.154,0-0.293-0.025-0.42-0.076c-0.125-0.051-0.232-0.125-0.32-0.222s-0.154-0.215-0.202-0.355
			c-0.048-0.142-0.071-0.302-0.071-0.482c0-0.178,0.023-0.338,0.07-0.479c0.047-0.142,0.115-0.263,0.205-0.363
			c0.086-0.096,0.193-0.169,0.32-0.22s0.267-0.076,0.418-0.076c0.156,0,0.296,0.025,0.421,0.077
			C692.371,86.395,692.477,86.468,692.564,86.563z M692.539,87.405c0-0.284-0.063-0.503-0.191-0.656
			c-0.127-0.154-0.301-0.231-0.521-0.231c-0.222,0-0.396,0.077-0.523,0.231c-0.126,0.153-0.189,0.372-0.189,0.656
			c0,0.286,0.064,0.506,0.193,0.657c0.129,0.152,0.303,0.229,0.52,0.229c0.219,0,0.391-0.076,0.52-0.229
			C692.475,87.911,692.539,87.691,692.539,87.405z"/>
		<path d="M694.967,88.494h-0.289v-1.922h-1.09v1.922h-0.289v-2.18h1.668V88.494z"/>
		<path d="M697.18,86.563c0.09,0.098,0.157,0.218,0.205,0.359c0.047,0.142,0.07,0.303,0.07,0.482s-0.023,0.341-0.072,0.482
			c-0.049,0.143-0.115,0.261-0.203,0.355c-0.09,0.099-0.195,0.173-0.318,0.223s-0.263,0.075-0.42,0.075
			c-0.154,0-0.293-0.025-0.419-0.076s-0.231-0.125-0.32-0.222c-0.088-0.097-0.155-0.215-0.202-0.355
			c-0.049-0.142-0.072-0.302-0.072-0.482c0-0.178,0.023-0.338,0.07-0.479c0.047-0.142,0.115-0.263,0.205-0.363
			c0.086-0.096,0.193-0.169,0.32-0.22c0.129-0.051,0.268-0.076,0.418-0.076c0.156,0,0.297,0.025,0.422,0.077
			C696.987,86.395,697.093,86.468,697.18,86.563z M697.154,87.405c0-0.284-0.063-0.503-0.19-0.656
			c-0.128-0.154-0.302-0.231-0.521-0.231c-0.223,0-0.397,0.077-0.524,0.231c-0.126,0.153-0.19,0.372-0.19,0.656
			c0,0.286,0.064,0.506,0.194,0.657c0.13,0.152,0.302,0.229,0.521,0.229c0.217,0,0.39-0.076,0.518-0.229
			C697.09,87.911,697.154,87.691,697.154,87.405z"/>
		<path d="M699.34,86.972c0,0.098-0.016,0.187-0.051,0.27c-0.033,0.082-0.08,0.153-0.141,0.214
			c-0.075,0.075-0.164,0.132-0.267,0.169c-0.103,0.038-0.231,0.057-0.388,0.057h-0.291v0.813h-0.289v-2.18h0.592
			c0.131,0,0.242,0.011,0.332,0.033c0.092,0.021,0.172,0.056,0.242,0.103c0.082,0.056,0.146,0.125,0.192,0.208
			S699.34,86.846,699.34,86.972z M699.039,86.979c0-0.074-0.013-0.14-0.039-0.195c-0.026-0.055-0.066-0.101-0.12-0.135
			c-0.048-0.03-0.101-0.052-0.161-0.065c-0.061-0.013-0.136-0.02-0.228-0.02h-0.288v0.867h0.246c0.117,0,0.212-0.011,0.285-0.031
			s0.133-0.055,0.18-0.1c0.045-0.047,0.078-0.096,0.097-0.147S699.039,87.043,699.039,86.979z"/>
		<path d="M701.442,88.494h-0.308l-0.213-0.605h-0.944l-0.212,0.605h-0.296l0.793-2.18h0.387L701.442,88.494z M700.832,87.638
			l-0.383-1.069l-0.383,1.069H700.832z"/>
		<path d="M76.872,88.25c0,0.445-0.051,0.85-0.152,1.213s-0.255,0.673-0.46,0.929c-0.208,0.261-0.467,0.462-0.78,0.603
			c-0.313,0.142-0.68,0.213-1.102,0.213c-0.119,0-0.23-0.006-0.335-0.019c-0.105-0.013-0.199-0.032-0.281-0.06V90.48h0.034
			c0.066,0.033,0.159,0.065,0.28,0.096s0.255,0.045,0.403,0.045c0.503,0,0.897-0.151,1.183-0.454
			c0.286-0.304,0.452-0.722,0.497-1.254c-0.212,0.128-0.412,0.22-0.599,0.274s-0.391,0.082-0.612,0.082
			c-0.209,0-0.399-0.021-0.569-0.062s-0.34-0.121-0.511-0.24c-0.201-0.14-0.352-0.316-0.453-0.531
			c-0.102-0.215-0.152-0.472-0.152-0.771c0-0.521,0.171-0.945,0.514-1.272s0.76-0.49,1.253-0.49c0.247,0,0.475,0.038,0.685,0.115
			c0.21,0.076,0.394,0.191,0.552,0.344c0.194,0.189,0.343,0.434,0.448,0.732C76.819,87.391,76.872,87.777,76.872,88.25z
			 M76.177,88.104c0-0.354-0.037-0.638-0.109-0.853c-0.073-0.214-0.173-0.381-0.301-0.5c-0.107-0.103-0.222-0.176-0.345-0.221
			c-0.123-0.044-0.257-0.066-0.4-0.066c-0.328,0-0.587,0.103-0.777,0.309c-0.19,0.205-0.286,0.494-0.286,0.865
			c0,0.217,0.031,0.395,0.092,0.531s0.165,0.257,0.311,0.359c0.103,0.07,0.215,0.118,0.338,0.142c0.123,0.024,0.26,0.036,0.41,0.036
			c0.178,0,0.358-0.023,0.541-0.072c0.182-0.048,0.353-0.117,0.513-0.209c0.002-0.047,0.005-0.095,0.008-0.142
			C76.175,88.237,76.177,88.177,76.177,88.104z"/>
		<path d="M79.986,89.167h-2.133v-0.609h2.133V89.167z"/>
		<path d="M85.032,89.521c0,0.246-0.048,0.47-0.145,0.67c-0.097,0.201-0.226,0.364-0.387,0.489c-0.191,0.15-0.396,0.258-0.615,0.321
			c-0.218,0.063-0.5,0.096-0.846,0.096h-1.843v-5.086h3.398v0.602h-2.719v1.391h1.186c0.346,0,0.627,0.02,0.845,0.06
			s0.424,0.136,0.617,0.286c0.172,0.134,0.3,0.301,0.383,0.499S85.032,89.271,85.032,89.521z M84.329,89.532
			c0-0.17-0.028-0.319-0.085-0.449c-0.057-0.129-0.146-0.233-0.266-0.313c-0.125-0.084-0.27-0.136-0.433-0.153
			c-0.164-0.019-0.395-0.027-0.692-0.027h-0.976v1.922h0.958c0.303,0,0.535-0.015,0.698-0.044c0.163-0.03,0.306-0.087,0.428-0.171
			c0.127-0.088,0.221-0.191,0.28-0.311S84.329,89.715,84.329,89.532z"/>
		<path d="M87.964,89.167h-2.133v-0.609h2.133V89.167z"/>
		<path d="M92.494,86.777l-2.309,4.32h-0.73l2.458-4.484H89.01v-0.602h3.484V86.777z"/>
		<path d="M96.944,86.777l-2.309,4.32h-0.73l2.458-4.484H93.46v-0.602h3.484V86.777z"/>
		<path d="M100.94,88.644c0.109,0.098,0.199,0.221,0.271,0.369c0.07,0.148,0.106,0.341,0.106,0.576c0,0.232-0.042,0.446-0.126,0.641
			c-0.085,0.194-0.204,0.363-0.356,0.507c-0.171,0.16-0.373,0.278-0.604,0.354c-0.231,0.077-0.485,0.115-0.762,0.115
			c-0.283,0-0.562-0.034-0.836-0.102c-0.273-0.066-0.499-0.141-0.674-0.221v-0.717h0.051c0.194,0.13,0.423,0.238,0.686,0.324
			c0.263,0.086,0.516,0.129,0.761,0.129c0.144,0,0.297-0.024,0.459-0.072c0.163-0.048,0.294-0.119,0.395-0.214
			c0.105-0.101,0.184-0.212,0.235-0.334c0.051-0.121,0.077-0.275,0.077-0.461c0-0.184-0.029-0.336-0.087-0.457
			c-0.059-0.12-0.139-0.215-0.242-0.284c-0.103-0.07-0.228-0.119-0.374-0.146c-0.146-0.026-0.304-0.04-0.473-0.04h-0.309V88.05
			h0.239c0.346,0,0.622-0.072,0.827-0.218c0.206-0.145,0.309-0.356,0.309-0.636c0-0.123-0.026-0.23-0.079-0.323
			c-0.053-0.093-0.125-0.169-0.219-0.229c-0.098-0.059-0.203-0.101-0.314-0.123c-0.112-0.022-0.238-0.034-0.379-0.034
			c-0.216,0-0.447,0.039-0.69,0.118s-0.474,0.19-0.69,0.335h-0.034v-0.717c0.162-0.08,0.378-0.153,0.648-0.221
			s0.532-0.102,0.785-0.102c0.248,0,0.467,0.022,0.656,0.068c0.189,0.045,0.36,0.118,0.513,0.219
			c0.164,0.109,0.289,0.241,0.373,0.396c0.084,0.155,0.126,0.336,0.126,0.543c0,0.282-0.1,0.528-0.299,0.739
			c-0.199,0.21-0.434,0.343-0.705,0.397v0.047c0.109,0.019,0.235,0.057,0.376,0.115C100.722,88.484,100.841,88.557,100.94,88.644z"
			/>
		<path d="M105.876,89.68c0,0.439-0.172,0.806-0.516,1.097c-0.344,0.292-0.776,0.438-1.297,0.438c-0.553,0-0.993-0.143-1.321-0.427
			c-0.328-0.285-0.492-0.649-0.492-1.094c0-0.282,0.083-0.538,0.248-0.768c0.165-0.229,0.397-0.41,0.698-0.545v-0.021
			c-0.274-0.146-0.477-0.305-0.608-0.479c-0.131-0.173-0.197-0.389-0.197-0.648c0-0.383,0.158-0.702,0.473-0.957
			c0.315-0.255,0.716-0.383,1.203-0.383c0.509,0,0.916,0.122,1.22,0.365c0.304,0.244,0.456,0.554,0.456,0.93
			c0,0.23-0.072,0.456-0.216,0.679c-0.144,0.222-0.355,0.396-0.634,0.521v0.021c0.318,0.137,0.562,0.306,0.73,0.506
			C105.792,89.115,105.876,89.371,105.876,89.68z M105.173,89.746c0-0.21-0.046-0.378-0.139-0.504
			c-0.093-0.127-0.273-0.254-0.543-0.382c-0.107-0.05-0.225-0.097-0.353-0.14s-0.298-0.104-0.51-0.182
			c-0.206,0.112-0.371,0.264-0.495,0.455s-0.187,0.408-0.187,0.649c0,0.308,0.106,0.562,0.318,0.763
			c0.212,0.2,0.482,0.301,0.809,0.301c0.333,0,0.6-0.086,0.8-0.256C105.073,90.279,105.173,90.044,105.173,89.746z M105.071,87.19
			c0-0.245-0.094-0.44-0.282-0.585c-0.188-0.146-0.428-0.219-0.72-0.219c-0.288,0-0.523,0.068-0.707,0.206s-0.275,0.323-0.275,0.557
			c0,0.165,0.046,0.308,0.138,0.428s0.231,0.228,0.418,0.321c0.084,0.041,0.206,0.096,0.364,0.162s0.313,0.121,0.462,0.164
			c0.227-0.15,0.384-0.308,0.471-0.471C105.028,87.591,105.071,87.404,105.071,87.19z"/>
		<polygon fill="#D5CAD0" stroke="#000000" stroke-width="2" points="548.753,68.084 529.833,69.417 440.083,69.417 416.017,68.084 
			408.017,66.334 407.017,65.084 422.562,53.606 490.283,2.35 498.334,1.001 534.503,1.601 541.392,2.584 "/>
		<polyline fill="#D5CAD0" stroke="#000000" stroke-width="2" points="540.75,3.202 533.946,3.712 497.703,3.545 489.786,2.31 "/>
		<line fill="none" stroke="#000000" stroke-width="0.5" x1="442.269" y1="70.302" x2="497.889" y2="3.599"/>
		<line fill="none" stroke="#000000" stroke-width="0.5" x1="534" y1="68.334" x2="534.034" y2="3.833"/>
		<polyline fill="none" stroke="#000000" stroke-width="0.75" points="423.656,53.333 453.764,56.636 533.198,56.636 547.45,54.023 
			"/>
		<polygon fill="#F7F6F6" stroke="#000000" stroke-width="2" points="548.753,108.37 529.833,107.037 440.083,107.037 
			416.017,108.37 408.017,110.12 407.017,111.37 422.562,122.848 490.283,174.104 498.334,175.453 534.503,174.853 541.392,173.87 
			"/>
		<polyline fill="#D5CAD0" stroke="#000000" stroke-width="2" points="540.75,173.252 533.946,172.742 497.703,172.909 
			489.786,174.144 "/>
		<line fill="none" stroke="#000000" stroke-width="0.5" x1="442.269" y1="106.152" x2="497.889" y2="172.855"/>
		<line fill="none" stroke="#000000" stroke-width="0.5" x1="534" y1="108.12" x2="534.034" y2="172.622"/>
		<polyline fill="none" stroke="#000000" stroke-width="0.75" points="423.656,123.122 453.764,119.818 533.198,119.818 
			547.45,122.431 "/>
		<path fill="#890C08" d="M493.615,44.107h-0.289v-1.066h-1.09v1.066h-0.289v-2.18h0.289v0.855h1.09v-0.855h0.289V44.107z"/>
		<path fill="#890C08" d="M495.639,44.107h-1.438v-2.18h1.438v0.258h-1.148v0.598h1.148v0.258h-1.148v0.809h1.148V44.107z"/>
		<path fill="#890C08" d="M498.712,42.185h-0.781v1.922h-0.289v-1.922h-0.781v-0.258h1.852V42.185z"/>
		<path fill="#890C08" d="M500.428,42.586c0,0.096-0.017,0.186-0.051,0.269c-0.033,0.082-0.08,0.153-0.141,0.214
			c-0.076,0.075-0.164,0.132-0.268,0.169c-0.102,0.038-0.231,0.057-0.388,0.057h-0.29v0.813h-0.289v-2.18h0.592
			c0.13,0,0.241,0.011,0.332,0.033c0.091,0.021,0.171,0.056,0.241,0.103c0.083,0.056,0.147,0.125,0.192,0.208
			C500.405,42.354,500.428,42.459,500.428,42.586z M500.127,42.592c0-0.074-0.014-0.14-0.04-0.195
			c-0.026-0.055-0.066-0.101-0.12-0.135c-0.047-0.03-0.101-0.052-0.16-0.065c-0.061-0.013-0.137-0.02-0.229-0.02h-0.287v0.867h0.245
			c0.117,0,0.212-0.011,0.286-0.031c0.073-0.021,0.133-0.055,0.179-0.1c0.046-0.047,0.078-0.096,0.098-0.147
			C500.117,42.714,500.127,42.657,500.127,42.592z"/>
		<path fill="#890C08" d="M502.438,42.176c0.089,0.098,0.157,0.218,0.204,0.359c0.048,0.142,0.071,0.303,0.071,0.482
			s-0.024,0.341-0.072,0.482c-0.049,0.143-0.116,0.261-0.203,0.355c-0.09,0.099-0.196,0.173-0.319,0.223
			c-0.122,0.05-0.263,0.075-0.42,0.075c-0.153,0-0.293-0.025-0.418-0.076c-0.126-0.051-0.232-0.125-0.32-0.222
			s-0.156-0.215-0.203-0.355c-0.048-0.141-0.071-0.302-0.071-0.482c0-0.178,0.023-0.338,0.07-0.479
			c0.047-0.142,0.115-0.263,0.205-0.363c0.086-0.096,0.193-0.169,0.32-0.22c0.128-0.051,0.267-0.076,0.417-0.076
			c0.156,0,0.297,0.025,0.422,0.077C502.244,42.008,502.351,42.082,502.438,42.176z M502.412,43.018
			c0-0.284-0.063-0.503-0.191-0.656c-0.127-0.154-0.301-0.231-0.521-0.231c-0.223,0-0.397,0.077-0.523,0.231
			c-0.127,0.153-0.19,0.372-0.19,0.656c0,0.286,0.064,0.506,0.193,0.657c0.13,0.152,0.303,0.229,0.521,0.229
			c0.217,0,0.39-0.076,0.519-0.229C502.348,43.524,502.412,43.304,502.412,43.018z"/>
		<path fill="#890C08" d="M504.582,42.185h-1.121v1.922h-0.289v-2.18h1.41V42.185z"/>
		<path fill="#890C08" d="M506.59,44.107h-0.308l-0.213-0.605h-0.944l-0.213,0.605h-0.295l0.793-2.18h0.387L506.59,44.107z
			 M505.979,43.251l-0.381-1.069l-0.384,1.069H505.979z"/>
		<path fill="#890C08" d="M508.48,42.185h-0.781v1.922h-0.289v-1.922h-0.781v-0.258h1.852V42.185z"/>
		<path fill="#890C08" d="M510.404,43.432c0,0.105-0.021,0.201-0.063,0.287c-0.041,0.086-0.097,0.155-0.166,0.209
			c-0.082,0.064-0.17,0.11-0.264,0.138s-0.215,0.041-0.363,0.041h-0.777v-2.18h0.289v0.855h0.496c0.148,0,0.27,0.009,0.363,0.025
			c0.094,0.018,0.183,0.058,0.266,0.122c0.074,0.058,0.13,0.129,0.165,0.214C510.387,43.229,510.404,43.325,510.404,43.432z
			 M510.104,43.437c0-0.073-0.013-0.138-0.037-0.192c-0.024-0.056-0.063-0.101-0.114-0.135c-0.054-0.036-0.116-0.058-0.187-0.065
			c-0.071-0.008-0.171-0.012-0.299-0.012h-0.406v0.824h0.398c0.131,0,0.23-0.006,0.301-0.019s0.132-0.037,0.185-0.073
			c0.056-0.038,0.096-0.083,0.121-0.134S510.104,43.516,510.104,43.437z"/>
		<path fill="#890C08" d="M493.615,134.357h-0.289v-1.066h-1.09v1.066h-0.289v-2.18h0.289v0.855h1.09v-0.855h0.289V134.357z"/>
		<path fill="#890C08" d="M495.639,134.357h-1.438v-2.18h1.438v0.258h-1.148v0.598h1.148v0.258h-1.148v0.809h1.148V134.357z"/>
		<path fill="#890C08" d="M498.712,132.435h-0.781v1.922h-0.289v-1.922h-0.781v-0.258h1.852V132.435z"/>
		<path fill="#890C08" d="M500.428,132.836c0,0.096-0.017,0.186-0.051,0.269c-0.033,0.082-0.08,0.153-0.141,0.214
			c-0.076,0.075-0.164,0.132-0.268,0.169c-0.102,0.038-0.231,0.057-0.388,0.057h-0.29v0.813h-0.289v-2.18h0.592
			c0.13,0,0.241,0.011,0.332,0.033c0.091,0.021,0.171,0.056,0.241,0.103c0.083,0.056,0.147,0.125,0.192,0.208
			C500.405,132.604,500.428,132.709,500.428,132.836z M500.127,132.842c0-0.074-0.014-0.14-0.04-0.195
			c-0.026-0.055-0.066-0.101-0.12-0.135c-0.047-0.03-0.101-0.052-0.16-0.065c-0.061-0.013-0.137-0.02-0.229-0.02h-0.287v0.867h0.245
			c0.117,0,0.212-0.011,0.286-0.031c0.073-0.021,0.133-0.055,0.179-0.1c0.046-0.047,0.078-0.096,0.098-0.147
			C500.117,132.964,500.127,132.907,500.127,132.842z"/>
		<path fill="#890C08" d="M502.438,132.426c0.089,0.098,0.157,0.218,0.204,0.359c0.048,0.142,0.071,0.303,0.071,0.482
			s-0.024,0.341-0.072,0.482c-0.049,0.143-0.116,0.261-0.203,0.355c-0.09,0.099-0.196,0.173-0.319,0.223
			c-0.122,0.05-0.263,0.075-0.42,0.075c-0.153,0-0.293-0.025-0.418-0.076c-0.126-0.051-0.232-0.125-0.32-0.222
			s-0.156-0.215-0.203-0.355c-0.048-0.141-0.071-0.302-0.071-0.482c0-0.178,0.023-0.338,0.07-0.479
			c0.047-0.142,0.115-0.263,0.205-0.363c0.086-0.096,0.193-0.169,0.32-0.22c0.128-0.051,0.267-0.076,0.417-0.076
			c0.156,0,0.297,0.025,0.422,0.077C502.244,132.258,502.351,132.332,502.438,132.426z M502.412,133.268
			c0-0.284-0.063-0.503-0.191-0.656c-0.127-0.154-0.301-0.231-0.521-0.231c-0.223,0-0.397,0.077-0.523,0.231
			c-0.127,0.153-0.19,0.372-0.19,0.656c0,0.286,0.064,0.506,0.193,0.657c0.13,0.152,0.303,0.229,0.521,0.229
			c0.217,0,0.39-0.076,0.519-0.229C502.348,133.774,502.412,133.554,502.412,133.268z"/>
		<path fill="#890C08" d="M504.582,132.435h-1.121v1.922h-0.289v-2.18h1.41V132.435z"/>
		<path fill="#890C08" d="M506.59,134.357h-0.308l-0.213-0.605h-0.944l-0.213,0.605h-0.295l0.793-2.18h0.387L506.59,134.357z
			 M505.979,133.501l-0.381-1.069l-0.384,1.069H505.979z"/>
		<path fill="#890C08" d="M508.48,132.435h-0.781v1.922h-0.289v-1.922h-0.781v-0.258h1.852V132.435z"/>
		<path fill="#890C08" d="M510.404,133.682c0,0.105-0.021,0.201-0.063,0.287c-0.041,0.086-0.097,0.155-0.166,0.209
			c-0.082,0.064-0.17,0.11-0.264,0.138s-0.215,0.041-0.363,0.041h-0.777v-2.18h0.289v0.855h0.496c0.148,0,0.27,0.009,0.363,0.025
			c0.094,0.018,0.183,0.058,0.266,0.122c0.074,0.058,0.13,0.129,0.165,0.214C510.387,133.479,510.404,133.575,510.404,133.682z
			 M510.104,133.687c0-0.073-0.013-0.138-0.037-0.192c-0.024-0.056-0.063-0.101-0.114-0.135c-0.054-0.036-0.116-0.058-0.187-0.065
			c-0.071-0.008-0.171-0.012-0.299-0.012h-0.406v0.824h0.398c0.131,0,0.23-0.006,0.301-0.019s0.132-0.037,0.185-0.073
			c0.056-0.038,0.096-0.083,0.121-0.134S510.104,133.766,510.104,133.687z"/>
		<polygon fill="#D5CAD0" stroke="#000000" stroke-width="2" points="746.729,67.534 756.328,68.844 787.384,68.844 795.093,66.77 
			795.093,19.424 791.565,18.442 783.675,18.442 779.565,19.678 746.219,66.261 "/>
		<polyline fill="none" stroke="#000000" stroke-width="0.5" points="755.638,53.789 763.208,54.948 791.463,54.948 795.135,53.574 
			"/>
		<path fill="#890C08" d="M772.115,44.107h-0.289v-1.066h-1.09v1.066h-0.289v-2.18h0.289v0.855h1.09v-0.855h0.289V44.107z"/>
		<path fill="#890C08" d="M774.139,44.107h-1.438v-2.18h1.438v0.258h-1.148v0.598h1.148v0.258h-1.148v0.809h1.148V44.107z"/>
		<path fill="#890C08" d="M777.212,42.185h-0.781v1.922h-0.289v-1.922h-0.781v-0.258h1.852V42.185z"/>
		<path fill="#890C08" d="M778.928,42.586c0,0.096-0.017,0.186-0.051,0.269c-0.033,0.082-0.08,0.153-0.141,0.214
			c-0.076,0.075-0.164,0.132-0.268,0.169c-0.102,0.038-0.231,0.057-0.388,0.057h-0.29v0.813h-0.289v-2.18h0.592
			c0.13,0,0.241,0.011,0.332,0.033c0.091,0.021,0.171,0.056,0.241,0.103c0.083,0.056,0.147,0.125,0.192,0.208
			C778.905,42.354,778.928,42.459,778.928,42.586z M778.627,42.592c0-0.074-0.014-0.14-0.04-0.195
			c-0.026-0.055-0.066-0.101-0.12-0.135c-0.047-0.03-0.101-0.052-0.16-0.065c-0.061-0.013-0.137-0.02-0.229-0.02h-0.287v0.867h0.245
			c0.117,0,0.212-0.011,0.286-0.031c0.073-0.021,0.133-0.055,0.179-0.1c0.046-0.047,0.078-0.096,0.098-0.147
			C778.617,42.714,778.627,42.657,778.627,42.592z"/>
		<path fill="#890C08" d="M780.938,42.176c0.089,0.098,0.157,0.218,0.204,0.359c0.048,0.142,0.071,0.303,0.071,0.482
			s-0.024,0.341-0.072,0.482c-0.049,0.143-0.116,0.261-0.203,0.355c-0.09,0.099-0.196,0.173-0.319,0.223
			c-0.122,0.05-0.263,0.075-0.42,0.075c-0.153,0-0.293-0.025-0.418-0.076c-0.126-0.051-0.232-0.125-0.32-0.222
			s-0.156-0.215-0.203-0.355c-0.048-0.141-0.071-0.302-0.071-0.482c0-0.178,0.023-0.338,0.07-0.479
			c0.047-0.142,0.115-0.263,0.205-0.363c0.086-0.096,0.193-0.169,0.32-0.22c0.128-0.051,0.267-0.076,0.417-0.076
			c0.156,0,0.297,0.025,0.422,0.077C780.744,42.008,780.851,42.082,780.938,42.176z M780.912,43.018
			c0-0.284-0.063-0.503-0.191-0.656c-0.127-0.154-0.301-0.231-0.521-0.231c-0.223,0-0.397,0.077-0.523,0.231
			c-0.127,0.153-0.19,0.372-0.19,0.656c0,0.286,0.064,0.506,0.193,0.657c0.13,0.152,0.303,0.229,0.521,0.229
			c0.217,0,0.39-0.076,0.519-0.229C780.848,43.524,780.912,43.304,780.912,43.018z"/>
		<path fill="#890C08" d="M783.082,42.185h-1.121v1.922h-0.289v-2.18h1.41V42.185z"/>
		<path fill="#890C08" d="M785.09,44.107h-0.308l-0.213-0.605h-0.944l-0.213,0.605h-0.295l0.793-2.18h0.387L785.09,44.107z
			 M784.479,43.251l-0.381-1.069l-0.384,1.069H784.479z"/>
		<path fill="#890C08" d="M786.98,42.185h-0.781v1.922h-0.289v-1.922h-0.781v-0.258h1.852V42.185z"/>
		<path fill="#890C08" d="M788.904,43.432c0,0.105-0.021,0.201-0.063,0.287c-0.041,0.086-0.097,0.155-0.166,0.209
			c-0.082,0.064-0.17,0.11-0.264,0.138s-0.215,0.041-0.363,0.041h-0.777v-2.18h0.289v0.855h0.496c0.148,0,0.27,0.009,0.363,0.025
			c0.094,0.018,0.183,0.058,0.266,0.122c0.074,0.058,0.13,0.129,0.165,0.214C788.887,43.229,788.904,43.325,788.904,43.432z
			 M788.604,43.437c0-0.073-0.013-0.138-0.037-0.192c-0.024-0.056-0.063-0.101-0.114-0.135c-0.054-0.036-0.116-0.058-0.187-0.065
			c-0.071-0.008-0.171-0.012-0.299-0.012h-0.406v0.824h0.398c0.131,0,0.23-0.006,0.301-0.019s0.132-0.037,0.185-0.073
			c0.056-0.038,0.096-0.083,0.121-0.134S788.604,43.516,788.604,43.437z"/>
		<linearGradient id="XMLID_2_" gradientUnits="userSpaceOnUse" x1="787.3291" y1="19.4214" x2="787.3291" y2="19.933">
			<stop  offset="0" style="stop-color:#CCC2CA"/>
			<stop  offset="0.2472" style="stop-color:#FFFFFF"/>
			<stop  offset="1" style="stop-color:#CCC2CA"/>
			<stop  offset="1" style="stop-color:#272831"/>
			<a:midPointStop  offset="0" style="stop-color:#CCC2CA"/>
			<a:midPointStop  offset="0.5" style="stop-color:#CCC2CA"/>
			<a:midPointStop  offset="0.2472" style="stop-color:#FFFFFF"/>
			<a:midPointStop  offset="0.5" style="stop-color:#FFFFFF"/>
			<a:midPointStop  offset="1" style="stop-color:#CCC2CA"/>
			<a:midPointStop  offset="0.5" style="stop-color:#CCC2CA"/>
			<a:midPointStop  offset="1" style="stop-color:#272831"/>
		</linearGradient>
		<polyline fill="url(#XMLID_2_)" stroke="#000000" stroke-width="2" points="779.565,19.678 784.401,19.933 791.529,19.933 
			795.093,19.424 "/>
		<polygon fill="#D5CAD0" stroke="#000000" stroke-width="2" points="746.729,107.752 756.328,106.442 787.384,106.442 
			795.093,108.516 795.093,155.862 791.565,156.844 783.675,156.844 779.565,155.608 746.219,109.025 "/>
		<polyline fill="none" stroke="#000000" stroke-width="0.5" points="755.638,121.498 763.208,120.338 791.463,120.338 
			795.135,121.712 "/>
		<path fill="#890C08" d="M772.115,133.607h-0.289v-1.066h-1.09v1.066h-0.289v-2.18h0.289v0.855h1.09v-0.855h0.289V133.607z"/>
		<path fill="#890C08" d="M774.139,133.607h-1.438v-2.18h1.438v0.258h-1.148v0.598h1.148v0.258h-1.148v0.809h1.148V133.607z"/>
		<path fill="#890C08" d="M777.212,131.685h-0.781v1.922h-0.289v-1.922h-0.781v-0.258h1.852V131.685z"/>
		<path fill="#890C08" d="M778.928,132.086c0,0.096-0.017,0.186-0.051,0.269c-0.033,0.082-0.08,0.153-0.141,0.214
			c-0.076,0.075-0.164,0.132-0.268,0.169c-0.102,0.038-0.231,0.057-0.388,0.057h-0.29v0.813h-0.289v-2.18h0.592
			c0.13,0,0.241,0.011,0.332,0.033c0.091,0.021,0.171,0.056,0.241,0.103c0.083,0.056,0.147,0.125,0.192,0.208
			C778.905,131.854,778.928,131.959,778.928,132.086z M778.627,132.092c0-0.074-0.014-0.14-0.04-0.195
			c-0.026-0.055-0.066-0.101-0.12-0.135c-0.047-0.03-0.101-0.052-0.16-0.065c-0.061-0.013-0.137-0.02-0.229-0.02h-0.287v0.867h0.245
			c0.117,0,0.212-0.011,0.286-0.031c0.073-0.021,0.133-0.055,0.179-0.1c0.046-0.047,0.078-0.096,0.098-0.147
			C778.617,132.214,778.627,132.157,778.627,132.092z"/>
		<path fill="#890C08" d="M780.938,131.676c0.089,0.098,0.157,0.218,0.204,0.359c0.048,0.142,0.071,0.303,0.071,0.482
			s-0.024,0.341-0.072,0.482c-0.049,0.143-0.116,0.261-0.203,0.355c-0.09,0.099-0.196,0.173-0.319,0.223
			c-0.122,0.05-0.263,0.075-0.42,0.075c-0.153,0-0.293-0.025-0.418-0.076c-0.126-0.051-0.232-0.125-0.32-0.222
			s-0.156-0.215-0.203-0.355c-0.048-0.141-0.071-0.302-0.071-0.482c0-0.178,0.023-0.338,0.07-0.479
			c0.047-0.142,0.115-0.263,0.205-0.363c0.086-0.096,0.193-0.169,0.32-0.22c0.128-0.051,0.267-0.076,0.417-0.076
			c0.156,0,0.297,0.025,0.422,0.077C780.744,131.508,780.851,131.582,780.938,131.676z M780.912,132.518
			c0-0.284-0.063-0.503-0.191-0.656c-0.127-0.154-0.301-0.231-0.521-0.231c-0.223,0-0.397,0.077-0.523,0.231
			c-0.127,0.153-0.19,0.372-0.19,0.656c0,0.286,0.064,0.506,0.193,0.657c0.13,0.152,0.303,0.229,0.521,0.229
			c0.217,0,0.39-0.076,0.519-0.229C780.848,133.024,780.912,132.804,780.912,132.518z"/>
		<path fill="#890C08" d="M783.082,131.685h-1.121v1.922h-0.289v-2.18h1.41V131.685z"/>
		<path fill="#890C08" d="M785.09,133.607h-0.308l-0.213-0.605h-0.944l-0.213,0.605h-0.295l0.793-2.18h0.387L785.09,133.607z
			 M784.479,132.751l-0.381-1.069l-0.384,1.069H784.479z"/>
		<path fill="#890C08" d="M786.98,131.685h-0.781v1.922h-0.289v-1.922h-0.781v-0.258h1.852V131.685z"/>
		<path fill="#890C08" d="M788.904,132.932c0,0.105-0.021,0.201-0.063,0.287c-0.041,0.086-0.097,0.155-0.166,0.209
			c-0.082,0.064-0.17,0.11-0.264,0.138s-0.215,0.041-0.363,0.041h-0.777v-2.18h0.289v0.855h0.496c0.148,0,0.27,0.009,0.363,0.025
			c0.094,0.018,0.183,0.058,0.266,0.122c0.074,0.058,0.13,0.129,0.165,0.214C788.887,132.729,788.904,132.825,788.904,132.932z
			 M788.604,132.937c0-0.073-0.013-0.138-0.037-0.192c-0.024-0.056-0.063-0.101-0.114-0.135c-0.054-0.036-0.116-0.058-0.187-0.065
			c-0.071-0.008-0.171-0.012-0.299-0.012h-0.406v0.824h0.398c0.131,0,0.23-0.006,0.301-0.019s0.132-0.037,0.185-0.073
			c0.056-0.038,0.096-0.083,0.121-0.134S788.604,133.016,788.604,132.937z"/>
		
			<linearGradient id="XMLID_3_" gradientUnits="userSpaceOnUse" x1="787.3291" y1="867.0991" x2="787.3291" y2="867.6107" gradientTransform="matrix(1 0 0 -1 0 1022.9639)">
			<stop  offset="0" style="stop-color:#CCC2CA"/>
			<stop  offset="0.2472" style="stop-color:#FFFFFF"/>
			<stop  offset="1" style="stop-color:#CCC2CA"/>
			<stop  offset="1" style="stop-color:#272831"/>
			<a:midPointStop  offset="0" style="stop-color:#CCC2CA"/>
			<a:midPointStop  offset="0.5" style="stop-color:#CCC2CA"/>
			<a:midPointStop  offset="0.2472" style="stop-color:#FFFFFF"/>
			<a:midPointStop  offset="0.5" style="stop-color:#FFFFFF"/>
			<a:midPointStop  offset="1" style="stop-color:#CCC2CA"/>
			<a:midPointStop  offset="0.5" style="stop-color:#CCC2CA"/>
			<a:midPointStop  offset="1" style="stop-color:#272831"/>
		</linearGradient>
		<polyline fill="url(#XMLID_3_)" stroke="#000000" stroke-width="2" points="779.565,155.608 784.401,155.353 791.529,155.353 
			795.093,155.862 "/>
		<rect x="776.824" y="117.498" fill="none" stroke="#000000" stroke-width="2" width="2.515" height="7.404"/> 
		<rect x="776.824" y="51.417" fill="none" stroke="#000000" stroke-width="2" width="2.515" height="7.404"/> 
		<line stroke="#000000" stroke-width="0.5" x1="805" y1="56.834" x2="805" y2="118.584"/>
		<path fill="#4D4D4D" stroke="#000000" d="M9.199,103.035c0,0-7.48-3.414-7.48-16.393c0-9.221,7.348-14.631,7.348-14.631
			L9.199,103.035z"/>
	</g>
</svg>
