<?xml version="1.0" encoding="utf-8"?>
<!-- Generator: Adobe Illustrator 11.0, SVG Export Plug-In  -->
<!DOCTYPE svg PUBLIC "-//W3C//DTD SVG 1.0//EN"    "http://www.w3.org/TR/2001/REC-SVG-20010904/DTD/svg10.dtd" [
	<!ENTITY ns_flows "http://ns.adobe.com/Flows/1.0/">
	<!ENTITY ns_svg "http://www.w3.org/2000/svg">
	<!ENTITY ns_xlink "http://www.w3.org/1999/xlink">
]>
<svg  xmlns="&ns_svg;" xmlns:xlink="&ns_xlink;" xmlns:a="http://ns.adobe.com/AdobeSVGViewerExtensions/3.0/"
	 width="830" height="156" viewBox="-0.5 -0.745 830 156" xml:space="preserve">
	<defs>
	</defs>
	<g>
		<g>
			<path fill="#D2C7CF" d="M559,126.616c0,4.004-3.246,7.25-7.25,7.25h-371c-4.004,0-7.25-3.246-7.25-7.25l0,0
				c0-4.004,3.246-7.25,7.25-7.25h371C555.754,119.366,559,122.612,559,126.616L559,126.616z"/>
			<path fill="none" stroke="#000000" d="M559,126.616c0,4.004-3.246,7.25-7.25,7.25h-371c-4.004,0-7.25-3.246-7.25-7.25l0,0
				c0-4.004,3.246-7.25,7.25-7.25h371C555.754,119.366,559,122.612,559,126.616L559,126.616z"/>
		</g>
		<circle fill="#D2C7CF" stroke="#000000" cx="548.417" cy="129.448" r="1.917"/> 
		<circle fill="#D2C7CF" stroke="#000000" cx="537.75" cy="129.448" r="1.917"/> 
		<circle fill="#D2C7CF" stroke="#000000" cx="526.667" cy="129.448" r="1.917"/> 
		<circle fill="#D2C7CF" stroke="#000000" cx="516.167" cy="129.448" r="1.917"/> 
		<circle fill="#D2C7CF" stroke="#000000" cx="505.5" cy="129.448" r="1.917"/> 
		<circle fill="#D2C7CF" stroke="#000000" cx="494.417" cy="129.448" r="1.917"/> 
		<circle fill="#D2C7CF" stroke="#000000" cx="483.917" cy="129.448" r="1.917"/> 
		<circle fill="#D2C7CF" stroke="#000000" cx="473.25" cy="129.448" r="1.917"/> 
		<circle fill="#D2C7CF" stroke="#000000" cx="462.167" cy="129.448" r="1.917"/> 
		<circle fill="#D2C7CF" stroke="#000000" cx="448.667" cy="129.448" r="1.917"/> 
		<circle fill="#D2C7CF" stroke="#000000" cx="438" cy="129.448" r="1.917"/> 
		<circle fill="#D2C7CF" stroke="#000000" cx="426.917" cy="129.448" r="1.917"/> 
		<circle fill="#D2C7CF" stroke="#000000" cx="411.667" cy="129.448" r="1.917"/> 
		<circle fill="#D2C7CF" stroke="#000000" cx="401" cy="129.448" r="1.917"/> 
		<circle fill="#D2C7CF" stroke="#000000" cx="389.916" cy="129.448" r="1.917"/> 
		<circle fill="#D2C7CF" stroke="#000000" cx="377.417" cy="129.448" r="1.917"/> 
		<circle fill="#D2C7CF" stroke="#000000" cx="366.75" cy="129.448" r="1.917"/> 
		<circle fill="#D2C7CF" stroke="#000000" cx="355.666" cy="129.448" r="1.917"/> 
		<circle fill="#D2C7CF" stroke="#000000" cx="343.167" cy="129.448" r="1.917"/> 
		<circle fill="#D2C7CF" stroke="#000000" cx="332.5" cy="129.448" r="1.917"/> 
		<circle fill="#D2C7CF" stroke="#000000" cx="321.416" cy="129.448" r="1.917"/> 
		<circle fill="#D2C7CF" stroke="#000000" cx="309.334" cy="129.448" r="1.917"/> 
		<circle fill="#D2C7CF" stroke="#000000" cx="298.667" cy="129.448" r="1.917"/> 
		<circle fill="#D2C7CF" stroke="#000000" cx="287.583" cy="129.448" r="1.917"/> 
		<circle fill="#D2C7CF" stroke="#000000" cx="274.75" cy="129.448" r="1.917"/> 
		<circle fill="#D2C7CF" stroke="#000000" cx="264.083" cy="129.448" r="1.917"/> 
		<circle fill="#D2C7CF" stroke="#000000" cx="253" cy="129.448" r="1.917"/> 
		<circle fill="#D2C7CF" stroke="#000000" cx="238.167" cy="129.448" r="1.917"/> 
		<circle fill="#D2C7CF" stroke="#000000" cx="227.5" cy="129.448" r="1.917"/> 
		<circle fill="#D2C7CF" stroke="#000000" cx="216.417" cy="129.448" r="1.917"/> 
		<circle fill="#D2C7CF" stroke="#000000" cx="201.584" cy="129.448" r="1.917"/> 
		<circle fill="#D2C7CF" stroke="#000000" cx="190.917" cy="129.448" r="1.917"/> 
		<g>
			<polygon fill="#D2C7CF" points="673.001,125.699 796.167,154.699 802.667,152.533 828.334,152.533 808.334,119.199 "/>
			<polygon fill="none" stroke="#000000" points="673.001,125.699 796.167,154.699 802.667,152.533 828.334,152.533 
				808.334,119.199 "/>
		</g>
		<g>
			<polygon fill="#E1DCDF" points="706.625,60.991 760.5,46.491 815.75,46.491 818.438,49.178 811.375,67.866 751.125,65.991 "/>
			<polygon fill="none" stroke="#000000" points="706.625,60.991 760.5,46.491 815.75,46.491 818.438,49.178 811.375,67.866 
				751.125,65.991 "/>
		</g>
		<linearGradient id="XMLID_1_" gradientUnits="userSpaceOnUse" x1="819.5" y1="93.3657" x2="826.5" y2="93.3657">
			<stop  offset="0" style="stop-color:#CDC2CC"/>
			<stop  offset="0.2472" style="stop-color:#FFFFFF"/>
			<stop  offset="1" style="stop-color:#CDC2CC"/>
			<stop  offset="1" style="stop-color:#262731"/>
			<a:midPointStop  offset="0" style="stop-color:#CDC2CC"/>
			<a:midPointStop  offset="0.5" style="stop-color:#CDC2CC"/>
			<a:midPointStop  offset="0.2472" style="stop-color:#FFFFFF"/>
			<a:midPointStop  offset="0.5" style="stop-color:#FFFFFF"/>
			<a:midPointStop  offset="1" style="stop-color:#CDC2CC"/>
			<a:midPointStop  offset="0.5" style="stop-color:#CDC2CC"/>
			<a:midPointStop  offset="1" style="stop-color:#262731"/>
		</linearGradient>
		<polygon fill="url(#XMLID_1_)" stroke="#000000" points="819.5,77.866 826.5,81.116 824.625,104.866 819.5,108.866 "/>
		<rect x="0.5" y="0.5" stroke="#000000" width="119.83" height="7.369"/> 
		<rect x="119.839" y="0.5" fill="#FFFFFF" stroke="#000000" width="119.83" height="7.369"/> 
		<path d="M120.531,25.244h-0.072l-4.068,2.196l-0.612-2.412l5.112-2.736h2.7v23.4h-3.06V25.244z"/>
		<path d="M231.334,45.692v-1.944l2.484-2.412c5.976-5.688,8.712-8.712,8.712-12.239c0-2.376-1.116-4.572-4.608-4.572
			c-2.124,0-3.888,1.08-4.968,1.979l-1.008-2.231c1.584-1.332,3.924-2.376,6.624-2.376c5.004,0,7.128,3.456,7.128,6.804
			c0,4.32-3.132,7.813-8.064,12.564l-1.836,1.728v0.072h10.476v2.628H231.334z"/>
		<path d="M148.138,39.692c-0.109-2.027-0.24-4.535-0.24-6.344h-0.043c-0.523,1.7-1.112,3.575-1.853,5.581l-2.594,7.128h-1.439
			l-2.398-6.998c-0.697-2.071-1.264-3.968-1.679-5.711h-0.043c-0.043,1.831-0.152,4.294-0.283,6.496l-0.393,6.3h-1.81l1.025-14.693
			h2.42l2.507,7.107c0.61,1.81,1.09,3.444,1.482,4.97h0.043c0.393-1.482,0.916-3.117,1.57-4.97l2.616-7.107h2.42l0.916,14.693
			h-1.875L148.138,39.692z"/>
		<g>
			
				<linearGradient id="XMLID_2_" gradientUnits="userSpaceOnUse" x1="411.2505" y1="300.9478" x2="411.2505" y2="234.4438" gradientTransform="matrix(1 0 0 -1 0 361.0635)">
				<stop  offset="0" style="stop-color:#CDC2CC"/>
				<stop  offset="0.2472" style="stop-color:#FFFFFF"/>
				<stop  offset="1" style="stop-color:#CDC2CC"/>
				<stop  offset="1" style="stop-color:#262731"/>
				<a:midPointStop  offset="0" style="stop-color:#CDC2CC"/>
				<a:midPointStop  offset="0.5" style="stop-color:#CDC2CC"/>
				<a:midPointStop  offset="0.2472" style="stop-color:#FFFFFF"/>
				<a:midPointStop  offset="0.5" style="stop-color:#FFFFFF"/>
				<a:midPointStop  offset="1" style="stop-color:#CDC2CC"/>
				<a:midPointStop  offset="0.5" style="stop-color:#CDC2CC"/>
				<a:midPointStop  offset="1" style="stop-color:#262731"/>
			</linearGradient>
			<path fill="url(#XMLID_2_)" d="M821,119.031c0,0-80,8-128,8s-402,0-449,0s-77.359,0.347-134-6
				c-37.167-4.165-71.167-9.329-108.5-25.998l0.25-1.167C39.083,77.197,72.833,70.698,110,66.533c56.641-6.347,87-6,134-6
				s401,0,449,0s128,8,128,8V119.031z"/>
			<path fill="none" stroke="#000000" d="M821,119.031c0,0-80,8-128,8s-402,0-449,0s-77.359,0.347-134-6
				c-37.167-4.165-71.167-9.329-108.5-25.998l0.25-1.167C39.083,77.197,72.833,70.698,110,66.533c56.641-6.347,87-6,134-6
				s401,0,449,0s128,8,128,8V119.031z"/>
		</g>
		<line fill="none" stroke="#000000" x1="693.5" y1="60.533" x2="693.5" y2="126.533"/>
		<line fill="none" stroke="#000000" x1="796.667" y1="66.366" x2="796.667" y2="121.199"/>
		<line fill="none" stroke="#000000" x1="591.166" y1="60.366" x2="591.166" y2="127.199"/>
		<line fill="none" stroke="#000000" x1="540" y1="60.366" x2="540" y2="127.199"/>
		<line fill="none" stroke="#000000" x1="534" y1="60.366" x2="534" y2="127.199"/>
		<line fill="none" stroke="#000000" x1="529.5" y1="60.366" x2="529.5" y2="127.199"/>
		<line fill="none" stroke="#000000" x1="295" y1="60.366" x2="295" y2="127.199"/>
		<line fill="none" stroke="#000000" x1="192.75" y1="60.866" x2="192.75" y2="126.366"/>
		<line fill="none" stroke="#000000" x1="144.75" y1="62.741" x2="144.75" y2="124.241"/>
		<line fill="none" stroke="#000000" x1="108.875" y1="120.741" x2="108.875" y2="66.866"/>
		<path fill="none" stroke="#000000" d="M201.167,87.283c0,0.691-0.746,1.25-1.667,1.25H187c-0.92,0-1.667-0.559-1.667-1.25l0,0
			c0-0.69,0.746-1.249,1.667-1.249h12.5C200.42,86.034,201.167,86.592,201.167,87.283L201.167,87.283z"/>
		<path fill="none" stroke="#000000" d="M201.167,108.116c0,0.691-0.746,1.25-1.667,1.25H187c-0.92,0-1.667-0.559-1.667-1.25l0,0
			c0-0.69,0.746-1.249,1.667-1.249h12.5C200.42,106.867,201.167,107.425,201.167,108.116L201.167,108.116z"/>
		<path fill="none" stroke="#000000" d="M701.666,74.782c0,0.691-0.746,1.25-1.666,1.25h-12.5c-0.92,0-1.666-0.559-1.666-1.25l0,0
			c0-0.69,0.746-1.249,1.666-1.249H700C700.92,73.533,701.666,74.091,701.666,74.782L701.666,74.782z"/>
		<path fill="none" stroke="#000000" d="M701.666,108.116c0,0.691-0.746,1.25-1.666,1.25h-12.5c-0.92,0-1.666-0.559-1.666-1.25l0,0
			c0-0.69,0.746-1.249,1.666-1.249H700C700.92,106.867,701.666,107.425,701.666,108.116L701.666,108.116z"/>
		<path fill="none" stroke="#000000" d="M286.333,66.533c0-2.209-1.791-4-4-4h-12c-2.209,0-4,1.791-4,4l0,0c0,2.209,1.791,4,4,4h12
			C284.542,70.533,286.333,68.742,286.333,66.533L286.333,66.533z"/>
		<path fill="none" stroke="#000000" d="M286.333,113.533c0-2.209-1.791-4-4-4h-12c-2.209,0-4,1.791-4,4l0,0c0,2.209,1.791,4,4,4h12
			C284.542,117.533,286.333,115.742,286.333,113.533L286.333,113.533z"/>
		<circle fill="none" stroke="#000000" cx="281" cy="93.7" r="3.667"/> 
		<circle fill="none" stroke="#000000" cx="283.333" cy="77.367" r="2.334"/> 
		<circle fill="none" stroke="#000000" cx="342.667" cy="93.2" r="4.167"/> 
		<path fill="none" stroke="#000000" d="M346.167,76.783c0,1.242-1.007,2.25-2.25,2.25h-3.833c-1.243,0-2.25-1.008-2.25-2.25l0,0
			c0-1.242,1.007-2.25,2.25-2.25h3.833C345.159,74.533,346.167,75.541,346.167,76.783L346.167,76.783z"/>
		<g>
			<linearGradient id="XMLID_3_" gradientUnits="userSpaceOnUse" x1="408.7998" y1="51.2749" x2="407.7998" y2="60.7749">
				<stop  offset="0" style="stop-color:#CDC2CC"/>
				<stop  offset="0.2472" style="stop-color:#FFFFFF"/>
				<stop  offset="1" style="stop-color:#CDC2CC"/>
				<stop  offset="1" style="stop-color:#262731"/>
				<a:midPointStop  offset="0" style="stop-color:#CDC2CC"/>
				<a:midPointStop  offset="0.5" style="stop-color:#CDC2CC"/>
				<a:midPointStop  offset="0.2472" style="stop-color:#FFFFFF"/>
				<a:midPointStop  offset="0.5" style="stop-color:#FFFFFF"/>
				<a:midPointStop  offset="1" style="stop-color:#CDC2CC"/>
				<a:midPointStop  offset="0.5" style="stop-color:#CDC2CC"/>
				<a:midPointStop  offset="1" style="stop-color:#262731"/>
			</linearGradient>
			<path fill="url(#XMLID_3_)" d="M383.5,61.367c8-4.334,21.833-6.668,29.833-7.834S428.5,52.2,428.5,52.2l3.668,7.333l-0.334,1.167
				l-3.334,1.333H385L383.5,61.367z"/>
			<path fill="none" stroke="#000000" d="M383.5,61.367c8-4.334,21.833-6.668,29.833-7.834S428.5,52.2,428.5,52.2l3.668,7.333
				l-0.334,1.167l-3.334,1.333H385L383.5,61.367z"/>
		</g>
		<g>
			
				<linearGradient id="XMLID_4_" gradientUnits="userSpaceOnUse" x1="618.2559" y1="163.4507" x2="617.417" y2="171.4198" gradientTransform="matrix(1 0 0 -1 0 288.2314)">
				<stop  offset="0" style="stop-color:#CDC2CC"/>
				<stop  offset="0.2472" style="stop-color:#FFFFFF"/>
				<stop  offset="1" style="stop-color:#CDC2CC"/>
				<stop  offset="1" style="stop-color:#262731"/>
				<a:midPointStop  offset="0" style="stop-color:#CDC2CC"/>
				<a:midPointStop  offset="0.5" style="stop-color:#CDC2CC"/>
				<a:midPointStop  offset="0.2472" style="stop-color:#FFFFFF"/>
				<a:midPointStop  offset="0.5" style="stop-color:#FFFFFF"/>
				<a:midPointStop  offset="1" style="stop-color:#CDC2CC"/>
				<a:midPointStop  offset="0.5" style="stop-color:#CDC2CC"/>
				<a:midPointStop  offset="1" style="stop-color:#262731"/>
			</linearGradient>
			<path fill="url(#XMLID_4_)" d="M601,115.975c5.397,3.967,14.73,6.104,20.126,7.171c5.397,1.066,10.233,1.22,10.233,1.22
				l2.474-6.712l-0.226-1.068l-2.248-1.22h-29.348L601,115.975z"/>
			<path fill="none" stroke="#000000" d="M601,115.975c5.397,3.967,14.73,6.104,20.126,7.171c5.397,1.066,10.233,1.22,10.233,1.22
				l2.474-6.712l-0.226-1.068l-2.248-1.22h-29.348L601,115.975z"/>
		</g>
		<linearGradient id="XMLID_5_" gradientUnits="userSpaceOnUse" x1="407.7505" y1="104.0327" x2="407.7505" y2="116.6997">
			<stop  offset="0" style="stop-color:#CDC2CC"/>
			<stop  offset="0.2472" style="stop-color:#FFFFFF"/>
			<stop  offset="1" style="stop-color:#CDC2CC"/>
			<stop  offset="1" style="stop-color:#262731"/>
			<a:midPointStop  offset="0" style="stop-color:#CDC2CC"/>
			<a:midPointStop  offset="0.5" style="stop-color:#CDC2CC"/>
			<a:midPointStop  offset="0.2472" style="stop-color:#FFFFFF"/>
			<a:midPointStop  offset="0.5" style="stop-color:#FFFFFF"/>
			<a:midPointStop  offset="1" style="stop-color:#CDC2CC"/>
			<a:midPointStop  offset="0.5" style="stop-color:#CDC2CC"/>
			<a:midPointStop  offset="1" style="stop-color:#262731"/>
		</linearGradient>
		<path fill="url(#XMLID_5_)" stroke="#000000" d="M430.668,116.2c0,0-46-1.501-46-7.167s46.167-5,46.167-5L430.668,116.2z"/>
		<linearGradient id="XMLID_6_" gradientUnits="userSpaceOnUse" x1="774.5049" y1="84.1792" x2="774.5049" y2="74.9925">
			<stop  offset="0" style="stop-color:#CDC2CC"/>
			<stop  offset="0.2472" style="stop-color:#FFFFFF"/>
			<stop  offset="1" style="stop-color:#CDC2CC"/>
			<stop  offset="1" style="stop-color:#262731"/>
			<a:midPointStop  offset="0" style="stop-color:#CDC2CC"/>
			<a:midPointStop  offset="0.5" style="stop-color:#CDC2CC"/>
			<a:midPointStop  offset="0.2472" style="stop-color:#FFFFFF"/>
			<a:midPointStop  offset="0.5" style="stop-color:#FFFFFF"/>
			<a:midPointStop  offset="1" style="stop-color:#CDC2CC"/>
			<a:midPointStop  offset="0.5" style="stop-color:#CDC2CC"/>
			<a:midPointStop  offset="1" style="stop-color:#262731"/>
		</linearGradient>
		<path fill="url(#XMLID_6_)" stroke="#000000" d="M772,84.366c0,0,5.271-0.01,5-4.874c-0.167-3-4.667-2.625-4.667-2.625L772,84.366
			z"/>
		<linearGradient id="XMLID_7_" gradientUnits="userSpaceOnUse" x1="761" y1="84.3491" x2="761" y2="75.3057">
			<stop  offset="0" style="stop-color:#CDC2CC"/>
			<stop  offset="0.2472" style="stop-color:#FFFFFF"/>
			<stop  offset="1" style="stop-color:#CDC2CC"/>
			<stop  offset="1" style="stop-color:#262731"/>
			<a:midPointStop  offset="0" style="stop-color:#CDC2CC"/>
			<a:midPointStop  offset="0.5" style="stop-color:#CDC2CC"/>
			<a:midPointStop  offset="0.2472" style="stop-color:#FFFFFF"/>
			<a:midPointStop  offset="0.5" style="stop-color:#FFFFFF"/>
			<a:midPointStop  offset="1" style="stop-color:#CDC2CC"/>
			<a:midPointStop  offset="0.5" style="stop-color:#CDC2CC"/>
			<a:midPointStop  offset="1" style="stop-color:#262731"/>
		</linearGradient>
		<path fill="url(#XMLID_7_)" stroke="#000000" d="M772,84.533h-22c0,0,4.667-4.166,10.167-6S772,77.199,772,77.199V84.533z"/>
		<circle fill="none" stroke="#000000" cx="549.625" cy="103.991" r="4.5"/> 
		<line fill="none" stroke="#000000" x1="802.667" y1="152.533" x2="772.501" y2="123.699"/>
		<g>
			<path fill="#D2C7CF" d="M819.501,73.366c-17,0.167-60.723,0.202-73.75-0.041c-13.459-0.251-15.543-1.042-15.417-2.792
				c0.191-2.66,14-2.583,20-2.834c5.229-0.219,65.041-1.125,66.874-1.125s2.459,0.625,2.459,0.625L819.501,73.366z"/>
			<path fill="none" stroke="#000000" d="M819.501,73.366c-17,0.167-60.723,0.202-73.75-0.041
				c-13.459-0.251-15.543-1.042-15.417-2.792c0.191-2.66,14-2.583,20-2.834c5.229-0.219,65.041-1.125,66.874-1.125
				s2.459,0.625,2.459,0.625L819.501,73.366z"/>
		</g>
		<linearGradient id="XMLID_8_" gradientUnits="userSpaceOnUse" x1="780.9697" y1="60.6997" x2="780.9697" y2="71.0327">
			<stop  offset="0" style="stop-color:#CDC2CC"/>
			<stop  offset="0.2472" style="stop-color:#FFFFFF"/>
			<stop  offset="1" style="stop-color:#CDC2CC"/>
			<stop  offset="1" style="stop-color:#262731"/>
			<a:midPointStop  offset="0" style="stop-color:#CDC2CC"/>
			<a:midPointStop  offset="0.5" style="stop-color:#CDC2CC"/>
			<a:midPointStop  offset="0.2472" style="stop-color:#FFFFFF"/>
			<a:midPointStop  offset="0.5" style="stop-color:#FFFFFF"/>
			<a:midPointStop  offset="1" style="stop-color:#CDC2CC"/>
			<a:midPointStop  offset="0.5" style="stop-color:#CDC2CC"/>
			<a:midPointStop  offset="1" style="stop-color:#262731"/>
		</linearGradient>
		<path fill="url(#XMLID_8_)" stroke="#000000" d="M740.375,71.616c-1.75-1.25-0.5-1.5,0.5-2.125s36-7.875,41.125-8.375
			s31-0.5,34.875,0.875s6.5,2.125,5.25,3.375s-4,4.25-4.25,5.125s-1.5,1-1.5,1L740.375,71.616z"/>
		<linearGradient id="XMLID_9_" gradientUnits="userSpaceOnUse" x1="779.0186" y1="62.8032" x2="818.875" y2="62.8032">
			<stop  offset="0" style="stop-color:#CDC2CC"/>
			<stop  offset="0.2472" style="stop-color:#FFFFFF"/>
			<stop  offset="1" style="stop-color:#CDC2CC"/>
			<stop  offset="1" style="stop-color:#262731"/>
			<a:midPointStop  offset="0" style="stop-color:#CDC2CC"/>
			<a:midPointStop  offset="0.5" style="stop-color:#CDC2CC"/>
			<a:midPointStop  offset="0.2472" style="stop-color:#FFFFFF"/>
			<a:midPointStop  offset="0.5" style="stop-color:#FFFFFF"/>
			<a:midPointStop  offset="1" style="stop-color:#CDC2CC"/>
			<a:midPointStop  offset="0.5" style="stop-color:#CDC2CC"/>
			<a:midPointStop  offset="1" style="stop-color:#262731"/>
		</linearGradient>
		<path fill="url(#XMLID_9_)" stroke="#000000" d="M783.5,61.366c-2.136,0-6.125,0.75-3.75,1.75s9.375,1.125,15.125,1.125
			s16.75-0.125,20.875-0.625c2.71-0.328,3.125-0.875,3.125-0.875"/>
		<path fill="none" stroke="#000000" d="M793.375,111.178c0,5.074-4.113,9.188-9.188,9.188h-8.75c-5.074,0-9.188-4.113-9.188-9.188
			l0,0c0-5.074,4.113-9.188,9.188-9.188h8.75C789.262,101.991,793.375,106.104,793.375,111.178L793.375,111.178z"/>
		<path fill="none" stroke="#000000" d="M790.25,114.866c0-3.037-2.463-5.5-5.5-5.5h-3.813c-3.037,0-5.5,2.463-5.5,5.5l0,0
			c0,3.037,2.463,5.5,5.5,5.5h3.813C787.787,120.366,790.25,117.903,790.25,114.866L790.25,114.866z"/>
		<linearGradient id="XMLID_10_" gradientUnits="userSpaceOnUse" x1="473.25" y1="84.5259" x2="473.25" y2="99.0259">
			<stop  offset="0" style="stop-color:#CDC2CC"/>
			<stop  offset="0.2472" style="stop-color:#FFFFFF"/>
			<stop  offset="1" style="stop-color:#CDC2CC"/>
			<stop  offset="1" style="stop-color:#262731"/>
			<a:midPointStop  offset="0" style="stop-color:#CDC2CC"/>
			<a:midPointStop  offset="0.5" style="stop-color:#CDC2CC"/>
			<a:midPointStop  offset="0.2472" style="stop-color:#FFFFFF"/>
			<a:midPointStop  offset="0.5" style="stop-color:#FFFFFF"/>
			<a:midPointStop  offset="1" style="stop-color:#CDC2CC"/>
			<a:midPointStop  offset="0.5" style="stop-color:#CDC2CC"/>
			<a:midPointStop  offset="1" style="stop-color:#262731"/>
		</linearGradient>
		<path fill="url(#XMLID_10_)" stroke="#000000" d="M355.5,92.116c0-6.75,39.75-7.5,48.75-7.5s133.5,3.5,153.75,4.25
			s33,1.75,33,1.75l-0.5,1.5c0,0-49.25,3.75-64.75,4.5s-90.75,2.5-111,2.5S355.5,97.616,355.5,92.116z"/>
		<g>
			<path fill="#FEFEFE" d="M426.5,91.995c0-3.469,20.424-3.854,25.048-3.854s68.593,1.798,78.997,2.184
				c10.404,0.385,16.955,0.898,16.955,0.898l-0.257,0.771c0,0-25.305,1.927-33.269,2.312c-7.964,0.386-46.627,1.284-57.031,1.284
				C446.538,95.59,426.5,94.82,426.5,91.995z"/>
			<path fill="none" stroke="#000000" d="M426.5,91.995c0-3.469,20.424-3.854,25.048-3.854s68.593,1.798,78.997,2.184
				c10.404,0.385,16.955,0.898,16.955,0.898l-0.257,0.771c0,0-25.305,1.927-33.269,2.312c-7.964,0.386-46.627,1.284-57.031,1.284
				C446.538,95.59,426.5,94.82,426.5,91.995z"/>
		</g>
		<linearGradient id="XMLID_11_" gradientUnits="userSpaceOnUse" x1="568.7461" y1="91.3618" x2="568.7461" y2="91.9907">
			<stop  offset="0" style="stop-color:#CDC2CC"/>
			<stop  offset="0.2472" style="stop-color:#FFFFFF"/>
			<stop  offset="1" style="stop-color:#CDC2CC"/>
			<stop  offset="1" style="stop-color:#262731"/>
			<a:midPointStop  offset="0" style="stop-color:#CDC2CC"/>
			<a:midPointStop  offset="0.5" style="stop-color:#CDC2CC"/>
			<a:midPointStop  offset="0.2472" style="stop-color:#FFFFFF"/>
			<a:midPointStop  offset="0.5" style="stop-color:#FFFFFF"/>
			<a:midPointStop  offset="1" style="stop-color:#CDC2CC"/>
			<a:midPointStop  offset="0.5" style="stop-color:#CDC2CC"/>
			<a:midPointStop  offset="1" style="stop-color:#262731"/>
		</linearGradient>
		<line fill="url(#XMLID_11_)" stroke="#000000" x1="547.243" y1="91.995" x2="590.25" y2="91.366"/>
	</g>
</svg>
