<?xml version="1.0" encoding="utf-8"?>
<!-- Generator: Adobe Illustrator 11.0, SVG Export Plug-In  -->
<!DOCTYPE svg PUBLIC "-//W3C//DTD SVG 1.0//EN"    "http://www.w3.org/TR/2001/REC-SVG-20010904/DTD/svg10.dtd" [
	<!ENTITY ns_flows "http://ns.adobe.com/Flows/1.0/">
	<!ENTITY ns_svg "http://www.w3.org/2000/svg">
	<!ENTITY ns_xlink "http://www.w3.org/1999/xlink">
]>
<svg  xmlns="&ns_svg;" xmlns:xlink="&ns_xlink;" xmlns:a="http://ns.adobe.com/AdobeSVGViewerExtensions/3.0/"
	 width="772" height="719" viewBox="-0.388 -0.11 772 719" xml:space="preserve">
	<defs>
	</defs>
	<g>
		<polygon fill="#D5CAD1" stroke="#000000" stroke-width="2" points="343.599,69.25 355.099,76.75 762.099,76.75 766.599,69.75 "/>
		<g>
			<linearGradient id="XMLID_1_" gradientUnits="userSpaceOnUse" x1="428.7549" y1="35.418" x2="428.7549" y2="72.7515">
				<stop  offset="0" style="stop-color:#CDC2CC"/>
				<stop  offset="0.2472" style="stop-color:#FFFFFF"/>
				<stop  offset="1" style="stop-color:#CDC2CC"/>
				<stop  offset="1" style="stop-color:#262731"/>
				<a:midPointStop  offset="0" style="stop-color:#CDC2CC"/>
				<a:midPointStop  offset="0.5" style="stop-color:#CDC2CC"/>
				<a:midPointStop  offset="0.2472" style="stop-color:#FFFFFF"/>
				<a:midPointStop  offset="0.5" style="stop-color:#FFFFFF"/>
				<a:midPointStop  offset="1" style="stop-color:#CDC2CC"/>
				<a:midPointStop  offset="0.5" style="stop-color:#CDC2CC"/>
				<a:midPointStop  offset="1" style="stop-color:#262731"/>
			</linearGradient>
			<path fill="url(#XMLID_1_)" d="M769.474,72.751H199.387c0,0-47.568,0-70.811-4.505c-26.786-5.191-40.541-14.054-40.541-14.054
				v-0.107c0,0,13.755-8.863,40.541-14.054c23.243-4.504,70.811-4.505,70.811-4.505h570.086V72.751z"/>
			<path fill="none" stroke="#000000" stroke-width="2" d="M769.474,72.751H199.387c0,0-47.568,0-70.811-4.505
				c-26.786-5.191-40.541-14.054-40.541-14.054v-0.107c0,0,13.755-8.863,40.541-14.054c23.243-4.504,70.811-4.505,70.811-4.505
				h570.086V72.751z"/>
		</g>
		<line fill="#FFFFFF" stroke="#000000" x1="193.601" y1="35.417" x2="193.601" y2="72.699"/>
		<line fill="#FFFFFF" stroke="#000000" x1="198.101" y1="35.417" x2="198.101" y2="72.699"/>
		<line fill="#FFFFFF" stroke="#000000" x1="375.601" y1="35.417" x2="375.601" y2="72.699"/>
		<line fill="#FFFFFF" stroke="#000000" x1="438.769" y1="35.417" x2="438.769" y2="72.699"/>
		<line fill="#FFFFFF" stroke="#000000" x1="681.435" y1="35.417" x2="681.435" y2="72.699"/>
		<line fill="#FFFFFF" stroke="#000000" x1="429.436" y1="35.417" x2="429.436" y2="72.699"/>
		<line fill="#FFFFFF" stroke="#000000" x1="309.601" y1="35.417" x2="309.601" y2="72.699"/>
		<line fill="#FFFFFF" stroke="#000000" x1="332.601" y1="35.417" x2="332.601" y2="72.699"/>
		<g>
			<polygon fill="#F7F6F6" points="705.585,41.064 705.585,45.344 730.747,49.281 741.103,49.281 766.18,45.601 766.18,42.091 
				741.445,36.785 729.549,36.785 "/>
			<polygon fill="none" stroke="#000000" stroke-width="2" points="705.585,41.064 705.585,45.344 730.747,49.281 741.103,49.281 
				766.18,45.601 766.18,42.091 741.445,36.785 729.549,36.785 "/>
		</g>
		<g>
			<polygon fill="#D5CAD1" points="705.585,66.752 705.585,62.473 730.747,58.536 741.103,58.536 766.18,62.216 766.18,65.725 
				741.445,71.031 729.549,71.031 "/>
			<polygon fill="none" stroke="#000000" stroke-width="2" points="705.585,66.752 705.585,62.473 730.747,58.536 741.103,58.536 
				766.18,62.216 766.18,65.725 741.445,71.031 729.549,71.031 "/>
		</g>
		<g>
			<rect x="667.868" y="32.228" fill="#4D4D4D" width="9.28" height="5.303"/> 
			<rect x="667.868" y="32.228" fill="none" stroke="#000000" width="9.28" height="5.303"/> 
		</g>
		<g>
			<rect x="454.368" y="32.228" fill="#4D4D4D" width="9.28" height="5.303"/> 
			<rect x="454.368" y="32.228" fill="none" stroke="#000000" width="9.28" height="5.303"/> 
		</g>
		<g>
			<rect x="398.868" y="32.228" fill="#4D4D4D" width="27.78" height="5.303"/> 
			<rect x="398.868" y="32.228" fill="none" stroke="#000000" width="27.78" height="5.303"/> 
		</g>
		<g>
			<polygon fill="#D5CAD1" points="468.637,39.958 609.004,39.958 600.102,21.154 477.853,21.154 "/>
			<polygon fill="none" stroke="#000000" stroke-width="2" points="468.637,39.958 609.004,39.958 600.102,21.154 477.853,21.154 
				"/>
		</g>
		<line fill="#F7F6F6" stroke="#000000" x1="474.769" y1="39.66" x2="482.899" y2="21.154"/>
		<line fill="#F7F6F6" stroke="#000000" x1="601.504" y1="40.501" x2="595.615" y2="21.715"/>
		<g>
			<polygon fill="#F7F6F6" points="468.637,66.839 609.004,66.839 600.102,85.643 477.853,85.643 "/>
			<polygon fill="none" stroke="#000000" stroke-width="2" points="468.637,66.839 609.004,66.839 600.102,85.643 477.853,85.643 
				"/>
		</g>
		<line fill="#F7F6F6" stroke="#000000" x1="474.769" y1="67.138" x2="482.899" y2="85.643"/>
		<line fill="#F7F6F6" stroke="#000000" x1="601.504" y1="66.296" x2="595.615" y2="85.082"/>
		<rect x="730.849" y="15.5" fill="#7F7F7F" stroke="#000000" stroke-width="2" width="9.5" height="27.25"/> 
		<rect x="730.849" y="1" fill="#B3B3B3" stroke="#000000" stroke-width="2" width="9.5" height="14.5"/> 
		<rect x="730.849" y="42.5" fill="#B3B3B3" stroke="#000000" stroke-width="2" width="9.5" height="5.5"/> 
		<rect x="730.849" y="64.358" fill="#B3B3B3" stroke="#000000" stroke-width="2" width="9.5" height="27.25"/> 
		<rect x="730.849" y="91.608" fill="#7F7F7F" stroke="#000000" stroke-width="2" width="9.5" height="14.5"/> 
		<rect x="730.849" y="59.108" fill="#7F7F7F" stroke="#000000" stroke-width="2" width="9.5" height="5.5"/> 
		<polygon fill="#D5CAD1" stroke="#000000" stroke-width="2" points="343.599,337.736 355.099,345.236 762.099,345.236 
			766.599,338.236 "/>
		<g>
			<linearGradient id="XMLID_2_" gradientUnits="userSpaceOnUse" x1="428.7549" y1="303.9038" x2="428.7549" y2="341.2373">
				<stop  offset="0" style="stop-color:#CDC2CC"/>
				<stop  offset="0.2472" style="stop-color:#FFFFFF"/>
				<stop  offset="1" style="stop-color:#CDC2CC"/>
				<stop  offset="1" style="stop-color:#262731"/>
				<a:midPointStop  offset="0" style="stop-color:#CDC2CC"/>
				<a:midPointStop  offset="0.5" style="stop-color:#CDC2CC"/>
				<a:midPointStop  offset="0.2472" style="stop-color:#FFFFFF"/>
				<a:midPointStop  offset="0.5" style="stop-color:#FFFFFF"/>
				<a:midPointStop  offset="1" style="stop-color:#CDC2CC"/>
				<a:midPointStop  offset="0.5" style="stop-color:#CDC2CC"/>
				<a:midPointStop  offset="1" style="stop-color:#262731"/>
			</linearGradient>
			<path fill="url(#XMLID_2_)" d="M769.474,341.238H199.387c0,0-47.568,0-70.811-4.505c-26.786-5.19-40.541-14.054-40.541-14.054
				v-0.107c0,0,13.755-8.863,40.541-14.055c23.243-4.504,70.811-4.505,70.811-4.505h570.086V341.238z"/>
			<path fill="none" stroke="#000000" stroke-width="2" d="M769.474,341.238H199.387c0,0-47.568,0-70.811-4.505
				c-26.786-5.19-40.541-14.054-40.541-14.054v-0.107c0,0,13.755-8.863,40.541-14.055c23.243-4.504,70.811-4.505,70.811-4.505
				h570.086V341.238z"/>
		</g>
		<line fill="#FFFFFF" stroke="#000000" x1="193.601" y1="303.904" x2="193.601" y2="341.185"/>
		<line fill="#FFFFFF" stroke="#000000" x1="198.101" y1="303.904" x2="198.101" y2="341.185"/>
		<line fill="#FFFFFF" stroke="#000000" x1="375.601" y1="303.904" x2="375.601" y2="341.185"/>
		<line fill="#FFFFFF" stroke="#000000" x1="438.769" y1="303.904" x2="438.769" y2="341.185"/>
		<line fill="#FFFFFF" stroke="#000000" x1="681.435" y1="303.904" x2="681.435" y2="341.185"/>
		<line fill="#FFFFFF" stroke="#000000" x1="429.436" y1="303.904" x2="429.436" y2="341.185"/>
		<line fill="#FFFFFF" stroke="#000000" x1="309.601" y1="303.904" x2="309.601" y2="341.185"/>
		<line fill="#FFFFFF" stroke="#000000" x1="332.601" y1="303.904" x2="332.601" y2="341.185"/>
		<g>
			<polygon fill="#F7F6F6" points="705.585,309.55 705.585,313.83 730.747,317.767 741.103,317.767 766.18,314.087 766.18,310.578 
				741.445,305.271 729.549,305.271 "/>
			<polygon fill="none" stroke="#000000" stroke-width="2" points="705.585,309.55 705.585,313.83 730.747,317.767 741.103,317.767 
				766.18,314.087 766.18,310.578 741.445,305.271 729.549,305.271 "/>
		</g>
		<g>
			<polygon fill="#D5CAD1" points="705.585,335.238 705.585,330.958 730.747,327.022 741.103,327.022 766.18,330.703 
				766.18,334.211 741.445,339.517 729.549,339.517 "/>
			<polygon fill="none" stroke="#000000" stroke-width="2" points="705.585,335.238 705.585,330.958 730.747,327.022 
				741.103,327.022 766.18,330.703 766.18,334.211 741.445,339.517 729.549,339.517 "/>
		</g>
		<g>
			<rect x="667.868" y="300.714" fill="#4D4D4D" width="9.28" height="5.303"/> 
			<rect x="667.868" y="300.714" fill="none" stroke="#000000" width="9.28" height="5.303"/> 
		</g>
		<g>
			<rect x="454.368" y="300.714" fill="#4D4D4D" width="9.28" height="5.303"/> 
			<rect x="454.368" y="300.714" fill="none" stroke="#000000" width="9.28" height="5.303"/> 
		</g>
		<g>
			<rect x="398.868" y="300.714" fill="#4D4D4D" width="27.78" height="5.303"/> 
			<rect x="398.868" y="300.714" fill="none" stroke="#000000" width="27.78" height="5.303"/> 
		</g>
		<rect x="730.849" y="283.986" fill="#7F7F7F" stroke="#000000" stroke-width="2" width="9.5" height="27.25"/> 
		<rect x="730.849" y="269.486" fill="#B3B3B3" stroke="#000000" stroke-width="2" width="9.5" height="14.5"/> 
		<rect x="730.849" y="310.986" fill="#B3B3B3" stroke="#000000" stroke-width="2" width="9.5" height="5.5"/> 
		<rect x="730.849" y="332.845" fill="#B3B3B3" stroke="#000000" stroke-width="2" width="9.5" height="27.25"/> 
		<rect x="730.849" y="360.095" fill="#7F7F7F" stroke="#000000" stroke-width="2" width="9.5" height="14.5"/> 
		<rect x="730.849" y="327.595" fill="#7F7F7F" stroke="#000000" stroke-width="2" width="9.5" height="5.5"/> 
		<polygon fill="#D5CAD1" stroke="#000000" stroke-width="2" points="343.599,204.243 355.099,211.743 762.099,211.743 
			766.599,204.743 "/>
		<g>
			<linearGradient id="XMLID_3_" gradientUnits="userSpaceOnUse" x1="428.7549" y1="170.4116" x2="428.7549" y2="207.7452">
				<stop  offset="0" style="stop-color:#CDC2CC"/>
				<stop  offset="0.2472" style="stop-color:#FFFFFF"/>
				<stop  offset="1" style="stop-color:#CDC2CC"/>
				<stop  offset="1" style="stop-color:#262731"/>
				<a:midPointStop  offset="0" style="stop-color:#CDC2CC"/>
				<a:midPointStop  offset="0.5" style="stop-color:#CDC2CC"/>
				<a:midPointStop  offset="0.2472" style="stop-color:#FFFFFF"/>
				<a:midPointStop  offset="0.5" style="stop-color:#FFFFFF"/>
				<a:midPointStop  offset="1" style="stop-color:#CDC2CC"/>
				<a:midPointStop  offset="0.5" style="stop-color:#CDC2CC"/>
				<a:midPointStop  offset="1" style="stop-color:#262731"/>
			</linearGradient>
			<path fill="url(#XMLID_3_)" d="M769.474,207.745H199.387c0,0-47.568,0-70.811-4.505c-26.786-5.19-40.541-14.054-40.541-14.054
				v-0.107c0,0,13.755-8.863,40.541-14.055c23.243-4.504,70.811-4.505,70.811-4.505h570.086V207.745z"/>
			<path fill="none" stroke="#000000" stroke-width="2" d="M769.474,207.745H199.387c0,0-47.568,0-70.811-4.505
				c-26.786-5.19-40.541-14.054-40.541-14.054v-0.107c0,0,13.755-8.863,40.541-14.055c23.243-4.504,70.811-4.505,70.811-4.505
				h570.086V207.745z"/>
		</g>
		<line fill="#FFFFFF" stroke="#000000" x1="193.601" y1="170.411" x2="193.601" y2="207.692"/>
		<line fill="#FFFFFF" stroke="#000000" x1="198.101" y1="170.411" x2="198.101" y2="207.692"/>
		<line fill="#FFFFFF" stroke="#000000" x1="375.601" y1="170.411" x2="375.601" y2="207.692"/>
		<line fill="#FFFFFF" stroke="#000000" x1="438.769" y1="170.411" x2="438.769" y2="207.692"/>
		<line fill="#FFFFFF" stroke="#000000" x1="681.435" y1="170.411" x2="681.435" y2="207.692"/>
		<line fill="#FFFFFF" stroke="#000000" x1="429.436" y1="170.411" x2="429.436" y2="207.692"/>
		<line fill="#FFFFFF" stroke="#000000" x1="309.601" y1="170.411" x2="309.601" y2="207.692"/>
		<line fill="#FFFFFF" stroke="#000000" x1="332.601" y1="170.411" x2="332.601" y2="207.692"/>
		<g>
			<rect x="667.868" y="167.221" fill="#4D4D4D" width="9.28" height="5.303"/> 
			<rect x="667.868" y="167.221" fill="none" stroke="#000000" width="9.28" height="5.303"/> 
		</g>
		<g>
			<rect x="454.368" y="167.221" fill="#4D4D4D" width="9.28" height="5.303"/> 
			<rect x="454.368" y="167.221" fill="none" stroke="#000000" width="9.28" height="5.303"/> 
		</g>
		<g>
			<rect x="398.868" y="167.221" fill="#4D4D4D" width="27.78" height="5.303"/> 
			<rect x="398.868" y="167.221" fill="none" stroke="#000000" width="27.78" height="5.303"/> 
		</g>
		<polygon fill="#F7F6F6" stroke="#000000" stroke-width="2" points="413.437,200.825 769.937,200.825 769.937,205.325 
			587.27,214.825 433.437,213.825 "/>
		<g>
			<polygon fill="#4D4D4D" points="414.729,201.043 410.989,201.043 410.989,205.517 429.25,217.838 433.21,217.765 433.137,213.95 
				"/>
			<polygon fill="none" stroke="#000000" stroke-width="2" points="414.729,201.043 410.989,201.043 410.989,205.517 
				429.25,217.838 433.21,217.765 433.137,213.95 "/>
		</g>
		<g>
			<rect x="433.137" y="213.95" fill="#D5CAD1" width="154.008" height="3.653"/> 
			<rect x="433.137" y="213.95" fill="none" stroke="#000000" stroke-width="2" width="154.008" height="3.653"/> 
		</g>
		<g>
			<polygon fill="#D5CAD1" points="587.145,213.95 587.145,217.604 769.812,210.604 769.812,204.45 "/>
			<polygon fill="none" stroke="#000000" stroke-width="2" points="587.145,213.95 587.145,217.604 769.812,210.604 769.812,204.45 
				"/>
		</g>
		<g>
			<polygon fill="#D5CAD1" points="705.477,212.937 705.644,208.437 730.144,203.604 745.477,203.604 766.811,205.27 
				766.811,210.27 "/>
			<polygon fill="none" stroke="#000000" stroke-width="2" points="705.477,212.937 705.644,208.437 730.144,203.604 
				745.477,203.604 766.811,205.27 766.811,210.27 "/>
		</g>
		<g>
			<polygon fill="#D5CAD1" points="413.312,177.554 769.812,177.554 769.812,173.054 587.145,163.554 433.312,164.554 "/>
			<polygon fill="none" stroke="#000000" stroke-width="2" points="413.312,177.554 769.812,177.554 769.812,173.054 
				587.145,163.554 433.312,164.554 "/>
		</g>
		<g>
			<polygon fill="#4D4D4D" points="414.729,177.211 410.989,177.211 410.989,172.737 429.25,160.416 433.21,160.489 
				433.137,164.304 "/>
			<polygon fill="none" stroke="#000000" stroke-width="2" points="414.729,177.211 410.989,177.211 410.989,172.737 
				429.25,160.416 433.21,160.489 433.137,164.304 "/>
		</g>
		<rect x="433.137" y="160.65" fill="#F7F6F6" stroke="#000000" stroke-width="2" width="154.008" height="3.653"/> 
		<polygon fill="#F7F6F6" stroke="#000000" stroke-width="2" points="587.145,164.304 587.145,160.65 769.812,167.65 
			769.812,173.804 "/>
		<polygon fill="#F7F6F6" stroke="#000000" stroke-width="2" points="705.477,165.317 705.644,169.817 730.144,174.65 
			745.477,174.65 766.811,172.984 766.811,167.984 "/>
		<rect x="730.849" y="141.744" fill="#7F7F7F" stroke="#000000" stroke-width="2" width="9.5" height="27.25"/> 
		<rect x="730.849" y="127.244" fill="#B3B3B3" stroke="#000000" stroke-width="2" width="9.5" height="14.5"/> 
		<rect x="730.849" y="168.744" fill="#B3B3B3" stroke="#000000" stroke-width="2" width="9.5" height="5.5"/> 
		<rect x="730.849" y="209.103" fill="#B3B3B3" stroke="#000000" stroke-width="2" width="9.5" height="27.25"/> 
		<rect x="730.849" y="236.353" fill="#7F7F7F" stroke="#000000" stroke-width="2" width="9.5" height="14.5"/> 
		<rect x="730.849" y="203.853" fill="#7F7F7F" stroke="#000000" stroke-width="2" width="9.5" height="5.5"/> 
		<line fill="none" stroke="#000000" x1="587.145" y1="164.304" x2="587.145" y2="176.611"/>
		<line fill="none" stroke="#000000" x1="587.145" y1="201.381" x2="587.145" y2="213.688"/>
		<g>
			<linearGradient id="XMLID_4_" gradientUnits="userSpaceOnUse" x1="529.9316" y1="291.2534" x2="529.9316" y2="353.2544">
				<stop  offset="0" style="stop-color:#CDC2CC"/>
				<stop  offset="0.2472" style="stop-color:#FFFFFF"/>
				<stop  offset="1" style="stop-color:#CDC2CC"/>
				<stop  offset="1" style="stop-color:#262731"/>
				<a:midPointStop  offset="0" style="stop-color:#CDC2CC"/>
				<a:midPointStop  offset="0.5" style="stop-color:#CDC2CC"/>
				<a:midPointStop  offset="0.2472" style="stop-color:#FFFFFF"/>
				<a:midPointStop  offset="0.5" style="stop-color:#FFFFFF"/>
				<a:midPointStop  offset="1" style="stop-color:#CDC2CC"/>
				<a:midPointStop  offset="0.5" style="stop-color:#CDC2CC"/>
				<a:midPointStop  offset="1" style="stop-color:#262731"/>
			</linearGradient>
			<polygon fill="url(#XMLID_4_)" points="375.599,340.587 432.265,353.254 646.265,353.254 684.265,341.92 684.265,302.587 
				646.265,291.253 432.265,291.253 375.599,303.92 "/>
			<polygon fill="none" stroke="#000000" stroke-width="2" points="375.599,340.587 432.265,353.254 646.265,353.254 
				684.265,341.92 684.265,302.587 646.265,291.253 432.265,291.253 375.599,303.92 "/>
		</g>
		<linearGradient id="XMLID_5_" gradientUnits="userSpaceOnUse" x1="646.2646" y1="291.2534" x2="646.2646" y2="353.2544">
			<stop  offset="0" style="stop-color:#CDC2CC"/>
			<stop  offset="0.2472" style="stop-color:#FFFFFF"/>
			<stop  offset="1" style="stop-color:#CDC2CC"/>
			<stop  offset="1" style="stop-color:#262731"/>
			<a:midPointStop  offset="0" style="stop-color:#CDC2CC"/>
			<a:midPointStop  offset="0.5" style="stop-color:#CDC2CC"/>
			<a:midPointStop  offset="0.2472" style="stop-color:#FFFFFF"/>
			<a:midPointStop  offset="0.5" style="stop-color:#FFFFFF"/>
			<a:midPointStop  offset="1" style="stop-color:#CDC2CC"/>
			<a:midPointStop  offset="0.5" style="stop-color:#CDC2CC"/>
			<a:midPointStop  offset="1" style="stop-color:#262731"/>
		</linearGradient>
		<line fill="url(#XMLID_5_)" stroke="#000000" x1="646.265" y1="291.253" x2="646.265" y2="353.254"/>
		<linearGradient id="XMLID_6_" gradientUnits="userSpaceOnUse" x1="432.2646" y1="291.2534" x2="432.2646" y2="353.2544">
			<stop  offset="0" style="stop-color:#CDC2CC"/>
			<stop  offset="0.2472" style="stop-color:#FFFFFF"/>
			<stop  offset="1" style="stop-color:#CDC2CC"/>
			<stop  offset="1" style="stop-color:#262731"/>
			<a:midPointStop  offset="0" style="stop-color:#CDC2CC"/>
			<a:midPointStop  offset="0.5" style="stop-color:#CDC2CC"/>
			<a:midPointStop  offset="0.2472" style="stop-color:#FFFFFF"/>
			<a:midPointStop  offset="0.5" style="stop-color:#FFFFFF"/>
			<a:midPointStop  offset="1" style="stop-color:#CDC2CC"/>
			<a:midPointStop  offset="0.5" style="stop-color:#CDC2CC"/>
			<a:midPointStop  offset="1" style="stop-color:#262731"/>
		</linearGradient>
		<line fill="url(#XMLID_6_)" stroke="#000000" x1="432.265" y1="291.253" x2="432.265" y2="353.254"/>
		<linearGradient id="XMLID_7_" gradientUnits="userSpaceOnUse" x1="441.5977" y1="291.2534" x2="441.5977" y2="353.2544">
			<stop  offset="0" style="stop-color:#CDC2CC"/>
			<stop  offset="0.2472" style="stop-color:#FFFFFF"/>
			<stop  offset="1" style="stop-color:#CDC2CC"/>
			<stop  offset="1" style="stop-color:#262731"/>
			<a:midPointStop  offset="0" style="stop-color:#CDC2CC"/>
			<a:midPointStop  offset="0.5" style="stop-color:#CDC2CC"/>
			<a:midPointStop  offset="0.2472" style="stop-color:#FFFFFF"/>
			<a:midPointStop  offset="0.5" style="stop-color:#FFFFFF"/>
			<a:midPointStop  offset="1" style="stop-color:#CDC2CC"/>
			<a:midPointStop  offset="0.5" style="stop-color:#CDC2CC"/>
			<a:midPointStop  offset="1" style="stop-color:#262731"/>
		</linearGradient>
		<line fill="url(#XMLID_7_)" stroke="#000000" x1="441.598" y1="291.253" x2="441.598" y2="353.254"/>
		<path d="M486.178,49.939c0.504-0.096,1.164-0.168,2.004-0.168c1.032,0,1.788,0.24,2.268,0.672c0.444,0.384,0.721,0.972,0.721,1.68
			c0,0.732-0.216,1.308-0.637,1.728c-0.552,0.588-1.451,0.888-2.472,0.888c-0.312,0-0.6-0.012-0.84-0.072v3.252h-1.044V49.939z
			 M487.222,53.815c0.228,0.06,0.516,0.084,0.864,0.084c1.26,0,2.027-0.612,2.027-1.716c0-1.068-0.756-1.584-1.907-1.584
			c-0.456,0-0.805,0.036-0.984,0.084V53.815z"/>
		<path d="M492.562,49.951c0.456-0.108,1.188-0.18,1.908-0.18c1.044,0,1.716,0.18,2.208,0.588c0.42,0.312,0.684,0.792,0.684,1.428
			c0,0.792-0.528,1.476-1.368,1.776V53.6c0.769,0.18,1.668,0.816,1.668,2.016c0,0.696-0.275,1.224-0.695,1.62
			c-0.553,0.516-1.465,0.756-2.784,0.756c-0.72,0-1.272-0.048-1.62-0.096V49.951z M493.605,53.263h0.948
			c1.092,0,1.739-0.588,1.739-1.368c0-0.936-0.708-1.32-1.764-1.32c-0.479,0-0.756,0.036-0.924,0.072V53.263z M493.605,57.127
			c0.216,0.036,0.504,0.048,0.876,0.048c1.08,0,2.076-0.396,2.076-1.572c0-1.092-0.948-1.56-2.088-1.56h-0.864V57.127z"/>
		<path d="M499.065,49.951c0.456-0.108,1.188-0.18,1.908-0.18c1.044,0,1.716,0.18,2.208,0.588c0.42,0.312,0.684,0.792,0.684,1.428
			c0,0.792-0.528,1.476-1.368,1.776V53.6c0.769,0.18,1.668,0.816,1.668,2.016c0,0.696-0.275,1.224-0.695,1.62
			c-0.553,0.516-1.465,0.756-2.784,0.756c-0.72,0-1.272-0.048-1.62-0.096V49.951z M500.109,53.263h0.948
			c1.092,0,1.739-0.588,1.739-1.368c0-0.936-0.708-1.32-1.764-1.32c-0.479,0-0.756,0.036-0.924,0.072V53.263z M500.109,57.127
			c0.216,0.036,0.504,0.048,0.876,0.048c1.08,0,2.076-0.396,2.076-1.572c0-1.092-0.948-1.56-2.088-1.56h-0.864V57.127z"/>
		<path d="M507.981,54.295v0.768h-2.964v-0.768H507.981z"/>
		<path d="M510.561,55.375l-0.84,2.544h-1.08l2.748-8.088h1.26l2.761,8.088h-1.116l-0.864-2.544H510.561z M513.213,54.56
			l-0.804-2.328c-0.168-0.528-0.288-1.008-0.408-1.476h-0.036c-0.108,0.468-0.24,0.972-0.396,1.464l-0.792,2.34H513.213z"/>
		<path d="M520.773,54.127h-3.132v2.916h3.504v0.876h-4.56v-8.088h4.38v0.876h-3.324v2.556h3.132V54.127z"/>
		<path d="M486.178,317.939c0.504-0.096,1.164-0.168,2.004-0.168c1.032,0,1.788,0.24,2.268,0.672
			c0.444,0.384,0.721,0.972,0.721,1.68c0,0.732-0.216,1.308-0.637,1.728c-0.552,0.588-1.451,0.888-2.472,0.888
			c-0.312,0-0.6-0.012-0.84-0.072v3.252h-1.044V317.939z M487.222,321.815c0.228,0.06,0.516,0.084,0.864,0.084
			c1.26,0,2.027-0.612,2.027-1.716c0-1.068-0.756-1.584-1.907-1.584c-0.456,0-0.805,0.036-0.984,0.084V321.815z"/>
		<path d="M492.562,317.951c0.456-0.108,1.188-0.18,1.908-0.18c1.044,0,1.716,0.18,2.208,0.588c0.42,0.312,0.684,0.792,0.684,1.428
			c0,0.792-0.528,1.476-1.368,1.776v0.036c0.769,0.18,1.668,0.816,1.668,2.016c0,0.696-0.275,1.224-0.695,1.62
			c-0.553,0.516-1.465,0.756-2.784,0.756c-0.72,0-1.272-0.048-1.62-0.096V317.951z M493.605,321.263h0.948
			c1.092,0,1.739-0.588,1.739-1.368c0-0.936-0.708-1.32-1.764-1.32c-0.479,0-0.756,0.036-0.924,0.072V321.263z M493.605,325.127
			c0.216,0.036,0.504,0.048,0.876,0.048c1.08,0,2.076-0.396,2.076-1.572c0-1.092-0.948-1.56-2.088-1.56h-0.864V325.127z"/>
		<path d="M499.065,317.951c0.456-0.108,1.188-0.18,1.908-0.18c1.044,0,1.716,0.18,2.208,0.588c0.42,0.312,0.684,0.792,0.684,1.428
			c0,0.792-0.528,1.476-1.368,1.776v0.036c0.769,0.18,1.668,0.816,1.668,2.016c0,0.696-0.275,1.224-0.695,1.62
			c-0.553,0.516-1.465,0.756-2.784,0.756c-0.72,0-1.272-0.048-1.62-0.096V317.951z M500.109,321.263h0.948
			c1.092,0,1.739-0.588,1.739-1.368c0-0.936-0.708-1.32-1.764-1.32c-0.479,0-0.756,0.036-0.924,0.072V321.263z M500.109,325.127
			c0.216,0.036,0.504,0.048,0.876,0.048c1.08,0,2.076-0.396,2.076-1.572c0-1.092-0.948-1.56-2.088-1.56h-0.864V325.127z"/>
		<path d="M507.981,322.295v0.768h-2.964v-0.768H507.981z"/>
		<path d="M510.561,323.375l-0.84,2.544h-1.08l2.748-8.088h1.26l2.761,8.088h-1.116l-0.864-2.544H510.561z M513.213,322.56
			l-0.804-2.328c-0.168-0.528-0.288-1.008-0.408-1.476h-0.036c-0.108,0.468-0.24,0.972-0.396,1.464l-0.792,2.34H513.213z"/>
		<path d="M520.773,322.127h-3.132v2.916h3.504v0.876h-4.56v-8.088h4.38v0.876h-3.324v2.556h3.132V322.127z"/>
		<path d="M524.913,322.295v0.768h-2.964v-0.768H524.913z"/>
		<path d="M525.873,318.312c0.553-0.36,1.248-0.612,2.137-0.612c1.403,0,2.376,0.732,2.376,1.98c0,0.996-0.732,1.752-1.656,1.98
			v0.024c1.128,0.12,1.968,0.864,1.968,2.016c0,1.68-1.464,2.352-2.939,2.352c-0.732,0-1.488-0.156-2.112-0.528l0.276-0.816
			c0.443,0.252,1.151,0.492,1.823,0.492c1.188,0,1.849-0.648,1.849-1.536c0-1.2-1.164-1.548-2.208-1.548h-0.48v-0.804h0.48
			c1.067,0,1.908-0.66,1.908-1.488c0-0.828-0.589-1.272-1.452-1.272c-0.612,0-1.236,0.252-1.681,0.528L525.873,318.312z"/>
		<path d="M532.089,317.939c0.504-0.096,1.164-0.168,2.004-0.168c1.032,0,1.788,0.24,2.268,0.672
			c0.444,0.384,0.721,0.972,0.721,1.68c0,0.732-0.216,1.308-0.637,1.728c-0.552,0.588-1.451,0.888-2.472,0.888
			c-0.312,0-0.6-0.012-0.84-0.072v3.252h-1.044V317.939z M533.133,321.815c0.228,0.06,0.516,0.084,0.864,0.084
			c1.26,0,2.027-0.612,2.027-1.716c0-1.068-0.756-1.584-1.907-1.584c-0.456,0-0.805,0.036-0.984,0.084V321.815z"/>
		<path d="M539.517,317.832v3.588h0.324l2.771-3.588h1.248l-3.06,3.708c1.344,0.18,1.859,0.996,2.268,2.088
			c0.313,0.828,0.54,1.572,0.889,2.292h-1.116c-0.3-0.552-0.517-1.272-0.744-1.908c-0.372-1.068-0.876-1.8-2.244-1.8h-0.336v3.708
			h-1.044v-8.088H539.517z"/>
		<path d="M486.178,185.939c0.504-0.096,1.164-0.168,2.004-0.168c1.032,0,1.788,0.24,2.268,0.672
			c0.444,0.384,0.721,0.972,0.721,1.68c0,0.732-0.216,1.308-0.637,1.728c-0.552,0.588-1.451,0.888-2.472,0.888
			c-0.312,0-0.6-0.012-0.84-0.072v3.252h-1.044V185.939z M487.222,189.815c0.228,0.06,0.516,0.084,0.864,0.084
			c1.26,0,2.027-0.612,2.027-1.716c0-1.068-0.756-1.584-1.907-1.584c-0.456,0-0.805,0.036-0.984,0.084V189.815z"/>
		<path d="M492.562,185.951c0.456-0.108,1.188-0.18,1.908-0.18c1.044,0,1.716,0.18,2.208,0.588c0.42,0.312,0.684,0.792,0.684,1.428
			c0,0.792-0.528,1.476-1.368,1.776v0.036c0.769,0.18,1.668,0.816,1.668,2.016c0,0.696-0.275,1.224-0.695,1.62
			c-0.553,0.516-1.465,0.756-2.784,0.756c-0.72,0-1.272-0.048-1.62-0.096V185.951z M493.605,189.263h0.948
			c1.092,0,1.739-0.588,1.739-1.368c0-0.936-0.708-1.32-1.764-1.32c-0.479,0-0.756,0.036-0.924,0.072V189.263z M493.605,193.127
			c0.216,0.036,0.504,0.048,0.876,0.048c1.08,0,2.076-0.396,2.076-1.572c0-1.092-0.948-1.56-2.088-1.56h-0.864V193.127z"/>
		<path d="M499.065,185.951c0.456-0.108,1.188-0.18,1.908-0.18c1.044,0,1.716,0.18,2.208,0.588c0.42,0.312,0.684,0.792,0.684,1.428
			c0,0.792-0.528,1.476-1.368,1.776v0.036c0.769,0.18,1.668,0.816,1.668,2.016c0,0.696-0.275,1.224-0.695,1.62
			c-0.553,0.516-1.465,0.756-2.784,0.756c-0.72,0-1.272-0.048-1.62-0.096V185.951z M500.109,189.263h0.948
			c1.092,0,1.739-0.588,1.739-1.368c0-0.936-0.708-1.32-1.764-1.32c-0.479,0-0.756,0.036-0.924,0.072V189.263z M500.109,193.127
			c0.216,0.036,0.504,0.048,0.876,0.048c1.08,0,2.076-0.396,2.076-1.572c0-1.092-0.948-1.56-2.088-1.56h-0.864V193.127z"/>
		<path d="M507.981,190.295v0.768h-2.964v-0.768H507.981z"/>
		<path d="M510.561,191.375l-0.84,2.544h-1.08l2.748-8.088h1.26l2.761,8.088h-1.116l-0.864-2.544H510.561z M513.213,190.56
			l-0.804-2.328c-0.168-0.528-0.288-1.008-0.408-1.476h-0.036c-0.108,0.468-0.24,0.972-0.396,1.464l-0.792,2.34H513.213z"/>
		<path d="M520.773,190.127h-3.132v2.916h3.504v0.876h-4.56v-8.088h4.38v0.876h-3.324v2.556h3.132V190.127z"/>
		<path d="M524.913,190.295v0.768h-2.964v-0.768H524.913z"/>
		<path d="M532.041,185.832v8.088h-1.056v-7.212h-3.756v7.212h-1.056v-8.088H532.041z"/>
		<path d="M539.386,185.832v7.236l0.708,0.024l-0.072,2.772h-0.816l-0.071-1.944h-5.101l-0.072,1.944h-0.815l-0.072-2.772
			l0.612-0.024c0.3-0.552,0.6-1.14,0.792-1.776c0.275-0.936,0.384-2.016,0.384-3.396v-2.064H539.386z M535.833,188.219
			c0,1.308-0.119,2.388-0.407,3.3c-0.168,0.564-0.433,1.104-0.66,1.536h3.563v-6.348h-2.496V188.219z"/>
		<polygon fill="#D5CAD1" stroke="#000000" stroke-width="2" points="342.328,474.242 353.828,481.742 760.827,481.742 
			765.327,474.742 "/>
		<g>
			<linearGradient id="XMLID_8_" gradientUnits="userSpaceOnUse" x1="427.4834" y1="440.4087" x2="427.4834" y2="477.7422">
				<stop  offset="0" style="stop-color:#CDC2CC"/>
				<stop  offset="0.2472" style="stop-color:#FFFFFF"/>
				<stop  offset="1" style="stop-color:#CDC2CC"/>
				<stop  offset="1" style="stop-color:#262731"/>
				<a:midPointStop  offset="0" style="stop-color:#CDC2CC"/>
				<a:midPointStop  offset="0.5" style="stop-color:#CDC2CC"/>
				<a:midPointStop  offset="0.2472" style="stop-color:#FFFFFF"/>
				<a:midPointStop  offset="0.5" style="stop-color:#FFFFFF"/>
				<a:midPointStop  offset="1" style="stop-color:#CDC2CC"/>
				<a:midPointStop  offset="0.5" style="stop-color:#CDC2CC"/>
				<a:midPointStop  offset="1" style="stop-color:#262731"/>
			</linearGradient>
			<path fill="url(#XMLID_8_)" d="M768.202,477.743H198.116c0,0-47.568-0.001-70.811-4.505
				c-26.786-5.191-40.541-14.055-40.541-14.055v-0.107c0,0,13.755-8.863,40.541-14.054c23.243-4.505,70.811-4.505,70.811-4.505
				h570.086V477.743z"/>
			<path fill="none" stroke="#000000" stroke-width="2" d="M768.202,477.743H198.116c0,0-47.568-0.001-70.811-4.505
				c-26.786-5.191-40.541-14.055-40.541-14.055v-0.107c0,0,13.755-8.863,40.541-14.054c23.243-4.505,70.811-4.505,70.811-4.505
				h570.086V477.743z"/>
		</g>
		<line fill="#FFFFFF" stroke="#000000" x1="192.33" y1="440.408" x2="192.33" y2="477.691"/>
		<line fill="#FFFFFF" stroke="#000000" x1="196.83" y1="440.408" x2="196.83" y2="477.691"/>
		<line fill="#FFFFFF" stroke="#000000" x1="374.33" y1="440.408" x2="374.33" y2="477.691"/>
		<line fill="#FFFFFF" stroke="#000000" x1="437.497" y1="440.408" x2="437.497" y2="477.691"/>
		<line fill="#FFFFFF" stroke="#000000" x1="680.163" y1="440.408" x2="680.163" y2="477.691"/>
		<line fill="#FFFFFF" stroke="#000000" x1="428.165" y1="440.408" x2="428.165" y2="477.691"/>
		<line fill="#FFFFFF" stroke="#000000" x1="277.429" y1="441.241" x2="277.429" y2="478.524"/>
		<line fill="#FFFFFF" stroke="#000000" x1="331.33" y1="440.408" x2="331.33" y2="477.691"/>
		<g>
			<rect x="666.597" y="437.218" fill="#4D4D4D" width="9.281" height="5.304"/> 
			<rect x="666.597" y="437.218" fill="none" stroke="#000000" width="9.281" height="5.304"/> 
		</g>
		<g>
			<rect x="453.097" y="437.218" fill="#4D4D4D" width="9.281" height="5.304"/> 
			<rect x="453.097" y="437.218" fill="none" stroke="#000000" width="9.281" height="5.304"/> 
		</g>
		<g>
			<rect x="397.597" y="437.218" fill="#4D4D4D" width="27.781" height="5.304"/> 
			<rect x="397.597" y="437.218" fill="none" stroke="#000000" width="27.781" height="5.304"/> 
		</g>
		<g>
			<polygon fill="#D5CAD1" points="467.366,444.949 607.733,444.949 598.831,426.146 476.581,426.146 "/>
			<polygon fill="none" stroke="#000000" stroke-width="2" points="467.366,444.949 607.733,444.949 598.831,426.146 
				476.581,426.146 "/>
		</g>
		<line fill="#F7F6F6" stroke="#000000" x1="473.497" y1="444.651" x2="481.628" y2="426.146"/>
		<line fill="#F7F6F6" stroke="#000000" x1="600.233" y1="445.492" x2="594.345" y2="426.707"/>
		<g>
			<polygon fill="#F7F6F6" points="467.366,471.831 607.733,471.831 598.831,490.634 476.581,490.634 "/>
			<polygon fill="none" stroke="#000000" stroke-width="2" points="467.366,471.831 607.733,471.831 598.831,490.634 
				476.581,490.634 "/>
		</g>
		<line fill="#F7F6F6" stroke="#000000" x1="473.497" y1="472.128" x2="481.628" y2="490.634"/>
		<line fill="#F7F6F6" stroke="#000000" x1="600.233" y1="471.288" x2="594.345" y2="490.074"/>
		<path d="M485.95,454.823v3.588h0.324l2.771-3.588h1.248l-3.059,3.708c1.344,0.18,1.859,0.996,2.268,2.088
			c0.313,0.828,0.539,1.571,0.889,2.292h-1.117c-0.299-0.553-0.516-1.271-0.744-1.908c-0.371-1.068-0.875-1.8-2.244-1.8h-0.336
			v3.708h-1.043v-8.088H485.95z"/>
		<path d="M493.595,459.287v0.769h-2.963v-0.769H493.595z"/>
		<path d="M499.56,455.11v0.697l-3.396,7.104h-1.08l3.371-6.9v-0.023h-3.816v-0.877H499.56z"/>
		<path d="M505.714,455.11v0.697l-3.396,7.104h-1.08l3.373-6.9v-0.023h-3.816v-0.877H505.714z"/>
		<path d="M513.995,459.358c-0.061-1.115-0.133-2.495-0.133-3.491h-0.023c-0.289,0.937-0.613,1.968-1.021,3.071l-1.428,3.925h-0.791
			l-1.32-3.853c-0.385-1.14-0.695-2.184-0.924-3.144h-0.023c-0.025,1.008-0.084,2.364-0.156,3.575l-0.217,3.469h-0.996l0.564-8.088
			h1.332l1.379,3.912c0.336,0.996,0.602,1.896,0.816,2.736h0.025c0.215-0.816,0.504-1.717,0.863-2.736l1.439-3.912h1.332
			l0.504,8.088h-1.031L513.995,459.358z"/>
		<g>
			<polygon fill="#D5CAD1" points="702.845,444.949 730.345,426.146 758.345,426.146 758.345,444.949 "/>
			<polygon fill="none" stroke="#000000" stroke-width="2" points="702.845,444.949 730.345,426.146 758.345,426.146 
				758.345,444.949 "/>
		</g>
		<g>
			<polygon fill="#F7F6F6" points="702.147,471.288 729.647,490.09 757.647,490.09 757.647,471.288 "/>
			<polygon fill="none" stroke="#000000" stroke-width="2" points="702.147,471.288 729.647,490.09 757.647,490.09 757.647,471.288 
				"/>
		</g>
		<ellipse fill="none" stroke="#000000" cx="295.262" cy="452.728" rx="5.333" ry="4.167"/> 
		<ellipse fill="none" stroke="#000000" cx="306.085" cy="465.25" rx="5.333" ry="4.167"/> 
		<ellipse fill="none" stroke="#000000" cx="306.085" cy="443.054" rx="5.333" ry="2.508"/> 
		<ellipse fill="none" stroke="#000000" cx="295.303" cy="475.713" rx="5.333" ry="2.508"/> 
		<polygon fill="#D5CAD1" stroke="#000000" stroke-width="2" points="256.89,594.922 268.39,602.422 675.39,602.422 679.89,595.422 
			"/>
		<g>
			<linearGradient id="XMLID_9_" gradientUnits="userSpaceOnUse" x1="383.9976" y1="561.0903" x2="383.9976" y2="598.4229">
				<stop  offset="0" style="stop-color:#CDC2CC"/>
				<stop  offset="0.2472" style="stop-color:#FFFFFF"/>
				<stop  offset="1" style="stop-color:#CDC2CC"/>
				<stop  offset="1" style="stop-color:#262731"/>
				<a:midPointStop  offset="0" style="stop-color:#CDC2CC"/>
				<a:midPointStop  offset="0.5" style="stop-color:#CDC2CC"/>
				<a:midPointStop  offset="0.2472" style="stop-color:#FFFFFF"/>
				<a:midPointStop  offset="0.5" style="stop-color:#FFFFFF"/>
				<a:midPointStop  offset="1" style="stop-color:#CDC2CC"/>
				<a:midPointStop  offset="0.5" style="stop-color:#CDC2CC"/>
				<a:midPointStop  offset="1" style="stop-color:#262731"/>
			</linearGradient>
			<path fill="url(#XMLID_9_)" d="M766.669,598.422H112.678c0,0-47.568,0-70.811-4.504c-26.786-5.191-40.541-14.055-40.541-14.055
				v-0.107c0,0,13.755-8.863,40.541-14.055c23.243-4.504,70.811-4.504,70.811-4.504h653.991V598.422z"/>
			<path fill="none" stroke="#000000" stroke-width="2" d="M766.669,598.422H112.678c0,0-47.568,0-70.811-4.504
				c-26.786-5.191-40.541-14.055-40.541-14.055v-0.107c0,0,13.755-8.863,40.541-14.055c23.243-4.504,70.811-4.504,70.811-4.504
				h653.991V598.422z"/>
		</g>
		<line fill="#FFFFFF" stroke="#000000" x1="106.892" y1="561.088" x2="106.892" y2="598.372"/>
		<line fill="#FFFFFF" stroke="#000000" x1="111.392" y1="561.088" x2="111.392" y2="598.372"/>
		<line fill="#FFFFFF" stroke="#000000" x1="288.891" y1="561.088" x2="288.891" y2="598.372"/>
		<line fill="#FFFFFF" stroke="#000000" x1="352.059" y1="561.088" x2="352.059" y2="598.372"/>
		<line fill="#FFFFFF" stroke="#000000" x1="594.726" y1="561.088" x2="594.726" y2="598.372"/>
		<line fill="#FFFFFF" stroke="#000000" x1="342.727" y1="561.088" x2="342.727" y2="598.372"/>
		<line fill="#FFFFFF" stroke="#000000" x1="191.991" y1="561.92" x2="191.991" y2="599.204"/>
		<line fill="#FFFFFF" stroke="#000000" x1="245.892" y1="561.088" x2="245.892" y2="598.372"/>
		<g>
			<rect x="581.159" y="557.899" fill="#4D4D4D" width="9.281" height="5.303"/> 
			<rect x="581.159" y="557.899" fill="none" stroke="#000000" width="9.281" height="5.303"/> 
		</g>
		<g>
			<rect x="367.659" y="557.899" fill="#4D4D4D" width="9.281" height="5.303"/> 
			<rect x="367.659" y="557.899" fill="none" stroke="#000000" width="9.281" height="5.303"/> 
		</g>
		<g>
			<rect x="312.159" y="557.899" fill="#4D4D4D" width="27.781" height="5.303"/> 
			<rect x="312.159" y="557.899" fill="none" stroke="#000000" width="27.781" height="5.303"/> 
		</g>
		<g>
			<polygon fill="#D5CAD1" points="381.928,565.629 766.669,566.172 765.419,553.187 389.634,549.906 "/>
			<polygon fill="none" stroke="#000000" stroke-width="2" points="381.928,565.629 766.669,566.172 765.419,553.187 
				389.634,549.906 "/>
		</g>
		<line fill="#F7F6F6" stroke="#000000" x1="388.06" y1="565.331" x2="394.681" y2="549.906"/>
		<line fill="#F7F6F6" stroke="#000000" x1="757.501" y1="566.172" x2="758.919" y2="553.756"/>
		<path d="M400.513,575.502v3.588h0.324l2.771-3.588h1.248l-3.06,3.709c1.344,0.18,1.859,0.996,2.268,2.088
			c0.313,0.828,0.54,1.571,0.889,2.291h-1.116c-0.3-0.552-0.517-1.271-0.744-1.908c-0.372-1.067-0.876-1.799-2.244-1.799h-0.336
			v3.707h-1.044v-8.088H400.513z"/>
		<path d="M408.157,579.967v0.768h-2.964v-0.768H408.157z"/>
		<path d="M414.121,575.791v0.696l-3.396,7.104h-1.08l3.372-6.899v-0.024H409.2v-0.876H414.121z"/>
		<path d="M420.276,575.791v0.696l-3.396,7.104h-1.08l3.372-6.899v-0.024h-3.816v-0.876H420.276z"/>
		<path d="M428.557,580.039c-0.061-1.116-0.133-2.495-0.133-3.491H428.4c-0.288,0.936-0.612,1.967-1.021,3.071l-1.428,3.925h-0.792
			l-1.32-3.853c-0.384-1.14-0.695-2.185-0.924-3.144h-0.023c-0.024,1.008-0.084,2.363-0.156,3.575l-0.216,3.468h-0.996l0.563-8.088
			h1.332l1.38,3.912c0.336,0.996,0.601,1.896,0.816,2.736h0.024c0.216-0.816,0.504-1.717,0.863-2.736l1.44-3.912h1.332l0.504,8.088
			h-1.032L428.557,580.039z"/>
		<path d="M431.964,579.031h3.756c-0.132-1.571-1.092-2.796-2.76-2.796c-0.66,0-1.225,0.18-1.74,0.396l-0.252-0.793
			c0.576-0.264,1.271-0.468,2.052-0.468c2.532,0,3.828,1.836,3.828,4.177c0,2.664-1.74,4.176-3.9,4.176
			c-0.792,0-1.536-0.156-2.111-0.408l0.228-0.84c0.468,0.216,1.14,0.371,1.752,0.371c1.776,0,2.844-1.295,2.916-2.976h-3.768
			V579.031z"/>
		<g>
			<polygon fill="#D5CAD1" points="708.185,552.907 737.001,535.422 765.169,535.422 765.419,553.187 "/>
			<polygon fill="none" stroke="#000000" stroke-width="2" points="708.185,552.907 737.001,535.422 765.169,535.422 
				765.419,553.187 "/>
		</g>
		<ellipse fill="none" stroke="#000000" cx="209.824" cy="573.409" rx="5.333" ry="4.166"/> 
		<ellipse fill="none" stroke="#000000" cx="220.647" cy="585.93" rx="5.333" ry="4.166"/> 
		<ellipse fill="none" stroke="#000000" cx="220.647" cy="563.735" rx="5.333" ry="2.508"/> 
		<ellipse fill="none" stroke="#000000" cx="209.865" cy="596.393" rx="5.333" ry="2.508"/> 
		<line fill="none" stroke="#000000" stroke-width="2" x1="454.423" y1="550.471" x2="454.423" y2="565.731"/>
		<line fill="none" stroke="#000000" stroke-width="2" x1="465.417" y1="550.568" x2="465.417" y2="565.746"/>
		<line fill="none" stroke="#000000" stroke-width="2" x1="533.665" y1="551.164" x2="533.665" y2="565.746"/>
		<g>
			<polygon fill="#F7F6F6" points="381.928,595.214 766.669,594.671 765.419,607.657 389.634,610.938 "/>
			<polygon fill="none" stroke="#000000" stroke-width="2" points="381.928,595.214 766.669,594.671 765.419,607.657 
				389.634,610.938 "/>
		</g>
		<line fill="#F7F6F6" stroke="#000000" x1="388.06" y1="595.513" x2="394.681" y2="610.938"/>
		<line fill="#F7F6F6" stroke="#000000" x1="757.501" y1="594.671" x2="758.919" y2="607.087"/>
		<g>
			<polygon fill="#F7F6F6" points="708.185,607.937 737.001,625.421 765.169,625.421 765.419,607.657 "/>
			<polygon fill="none" stroke="#000000" stroke-width="2" points="708.185,607.937 737.001,625.421 765.169,625.421 
				765.419,607.657 "/>
		</g>
		<line fill="none" stroke="#000000" stroke-width="2" x1="454.423" y1="610.373" x2="454.423" y2="595.113"/>
		<line fill="none" stroke="#000000" stroke-width="2" x1="465.417" y1="610.276" x2="465.417" y2="595.098"/>
		<line fill="none" stroke="#000000" stroke-width="2" x1="533.665" y1="609.68" x2="533.665" y2="595.098"/>
		<rect x="0.5" y="659.308" stroke="#000000" width="195.651" height="12.031"/> 
		<rect x="195.352" y="659.308" fill="#FFFFFF" stroke="#000000" width="195.651" height="12.031"/> 
		<path d="M193.308,697.737h-0.07l-3.927,2.119l-0.59-2.328l4.933-2.641h2.607v22.585h-2.954V697.737z"/>
		<path d="M386.927,717.909v-1.934l2.471-2.399c5.943-5.657,8.664-8.665,8.664-12.173c0-2.363-1.109-4.548-4.582-4.548
			c-2.113,0-3.868,1.075-4.941,1.969l-1.004-2.219c1.576-1.325,3.904-2.363,6.59-2.363c4.977,0,7.088,3.437,7.088,6.767
			c0,4.297-3.113,7.77-8.02,12.496l-1.826,1.719v0.072h10.419v2.613H386.927z"/>
		<path d="M219.952,711.681c-0.104-1.957-0.231-4.377-0.231-6.122h-0.042c-0.505,1.641-1.073,3.45-1.788,5.386l-2.504,6.88h-1.389
			l-2.314-6.754c-0.673-1.999-1.22-3.829-1.621-5.512h-0.042c-0.042,1.767-0.147,4.145-0.274,6.27l-0.378,6.08h-1.746l0.989-14.182
			h2.335l2.419,6.859c0.589,1.747,1.052,3.324,1.431,4.797h0.042c0.379-1.43,0.884-3.008,1.516-4.797l2.524-6.859h2.335
			l0.884,14.182h-1.81L219.952,711.681z"/>
	</g>
</svg>
